<svg width="533" height="840" viewBox="0 0 533 840" fill="none" xmlns="http://www.w3.org/2000/svg"><path d="M276.063 604.617l-11.134-6.428-6.429 11.134-3.711-2.143 6.428-11.134-11.134-6.429 2.142-3.711 11.135 6.428 6.429-11.134 3.711 2.142-6.428 11.135 11.134 6.429-2.143 3.711zm51.962 30l-11.135-6.428-6.428 11.134-3.712-2.143 6.429-11.134-11.135-6.429 2.143-3.711 11.134 6.428 6.429-11.134 3.712 2.142-6.429 11.135 11.135 6.429-2.143 3.711zm51.961 30l-11.135-6.428-6.428 11.134-3.712-2.143 6.429-11.134-11.135-6.429 2.143-3.711 11.135 6.428 6.428-11.134 3.712 2.142-6.429 11.135 11.135 6.429-2.143 3.711zm-30 51.961l-11.135-6.428-6.428 11.134-3.712-2.143 6.429-11.134-11.135-6.429 2.143-3.711 11.135 6.428 6.428-11.134 3.712 2.142-6.429 11.135 11.135 6.429-2.143 3.711zm-133.923-8.038l-11.134-6.429-6.429 11.135-3.711-2.143 6.428-11.134-11.135-6.429 2.143-3.712 11.135 6.429 6.429-11.135 3.711 2.143-6.429 11.135 11.135 6.428-2.143 3.712zm51.962 30l-11.135-6.429-6.429 11.135-3.711-2.143 6.429-11.134-11.135-6.429 2.143-3.712 11.134 6.429 6.429-11.135 3.711 2.143-6.428 11.135 11.135 6.428-2.143 3.712zm51.961 30l-11.135-6.429-6.428 11.135-3.712-2.143 6.429-11.134-11.135-6.429 2.143-3.712 11.135 6.429 6.428-11.135 3.712 2.143-6.429 11.135 11.135 6.428-2.143 3.712zm-95.884-193.923l-11.135-6.428-6.428 11.134-3.712-2.143 6.429-11.134-11.135-6.429 2.143-3.711 11.135 6.428 6.428-11.134 3.712 2.142-6.429 11.135 11.135 6.429-2.143 3.711zm-133.923-8.039l-11.135-6.429-6.428 11.135-3.712-2.143 6.429-11.134-11.135-6.429 2.143-3.711 11.135 6.428 6.428-11.135 3.712 2.143-6.429 11.135 11.135 6.429-2.143 3.711zm51.961 30l-11.135-6.429-6.428 11.135-3.712-2.143 6.429-11.134-11.135-6.429 2.143-3.711 11.135 6.428 6.428-11.135 3.712 2.143-6.429 11.135 11.135 6.429-2.143 3.711zm51.962 30l-11.135-6.429-6.428 11.135-3.712-2.143 6.429-11.134-11.135-6.429 2.143-3.711 11.135 6.428 6.428-11.135 3.712 2.143-6.429 11.135 11.135 6.429-2.143 3.711zM60.179 618.54l-11.135-6.429-6.428 11.135-3.712-2.143 6.429-11.134-11.135-6.429 2.143-3.712 11.135 6.429 6.428-11.135 3.712 2.143-6.429 11.135 11.135 6.428-2.143 3.712zm51.961 30l-11.135-6.429-6.428 11.135-3.712-2.143 6.429-11.134-11.135-6.429 2.143-3.712 11.135 6.429 6.428-11.135 3.712 2.143-6.429 11.135 11.135 6.428-2.143 3.712zm51.962 30l-11.135-6.429-6.428 11.135-3.712-2.143 6.429-11.134-11.135-6.429 2.143-3.712 11.135 6.429 6.428-11.135 3.712 2.143-6.429 11.135 11.135 6.428-2.143 3.712zm21.961 81.962l-11.134-6.429-6.429 11.135-3.711-2.143 6.428-11.135-11.134-6.428 2.142-3.712 11.135 6.429 6.429-11.135 3.711 2.143-6.428 11.135 11.134 6.428-2.143 3.712zm51.962 30l-11.135-6.429-6.429 11.135-3.711-2.143 6.429-11.135-11.135-6.428 2.143-3.712 11.134 6.429 6.429-11.135 3.711 2.143-6.428 11.135 11.135 6.428-2.143 3.712zm51.961 30l-11.135-6.429-6.428 11.135-3.712-2.143 6.429-11.135-11.135-6.428 2.143-3.712 11.135 6.429 6.428-11.135 3.712 2.143-6.429 11.135 11.135 6.428-2.143 3.712zm-133.923-8.039l-11.135-6.429-6.428 11.135-3.712-2.143 6.429-11.135-11.135-6.428 2.143-3.712 11.134 6.429 6.429-11.135 3.712 2.143-6.429 11.135 11.135 6.428-2.143 3.712zm51.962 30l-11.135-6.429-6.429 11.135-3.711-2.143 6.429-11.135-11.135-6.428 2.143-3.712 11.134 6.429 6.429-11.135 3.711 2.143-6.428 11.135 11.135 6.428-2.143 3.712zm51.961 30l-11.135-6.429-6.428 11.135-3.712-2.143 6.429-11.135-11.135-6.428 2.143-3.712 11.135 6.429 6.428-11.135 3.712 2.143-6.429 11.135 11.135 6.428-2.143 3.712zm-133.923-8.038l-11.135-6.429-6.428 11.135-3.712-2.143 6.429-11.135-11.135-6.428 2.143-3.712 11.134 6.429 6.429-11.135 3.712 2.143-6.429 11.135 11.135 6.428-2.143 3.712zm51.962 30l-11.135-6.429-6.428 11.135-3.712-2.143 6.429-11.135-11.135-6.428 2.143-3.712 11.134 6.429 6.429-11.135 3.712 2.143-6.429 11.135 11.135 6.428-2.143 3.712zm51.961 30l-11.135-6.429-6.428 11.135-3.712-2.143 6.429-11.135-11.135-6.428 2.143-3.712 11.135 6.429 6.428-11.135 3.712 2.143-6.429 11.135 11.135 6.428-2.143 3.712zm-95.884-193.924l-11.135-6.429-6.428 11.135-3.712-2.143 6.429-11.134-11.135-6.429 2.143-3.712 11.135 6.429 6.428-11.135 3.712 2.143-6.429 11.135 11.135 6.428-2.143 3.712zM.179 722.463l-11.135-6.429-6.428 11.135-3.712-2.143 6.429-11.135-11.135-6.428 2.143-3.712 11.135 6.429 6.428-11.135 3.712 2.143-6.429 11.135 11.135 6.428-2.143 3.712zm51.961 30l-11.135-6.429-6.428 11.135-3.712-2.143 6.429-11.135-11.135-6.428 2.143-3.712 11.135 6.429 6.428-11.135 3.712 2.143-6.429 11.135 11.135 6.428-2.143 3.712zm51.962 30l-11.135-6.429-6.428 11.135-3.712-2.143 6.429-11.135-11.135-6.428 2.143-3.712 11.135 6.429 6.428-11.135 3.712 2.143-6.429 11.135 11.135 6.428-2.143 3.712zm-133.923-8.038l-11.135-6.429-6.428 11.135-3.712-2.143 6.429-11.135-11.135-6.428 2.143-3.712 11.135 6.429 6.428-11.135 3.712 2.143-6.429 11.135 11.135 6.428-2.143 3.712zm51.961 30l-11.135-6.429-6.428 11.135-3.712-2.143 6.429-11.135-11.135-6.428 2.143-3.712 11.135 6.429 6.428-11.135 3.712 2.143-6.429 11.135 11.135 6.428-2.143 3.712zm51.962 30l-11.135-6.429-6.428 11.135-3.712-2.143 6.429-11.135-11.135-6.428 2.143-3.712 11.135 6.429 6.428-11.135 3.712 2.143-6.429 11.135 11.135 6.428-2.143 3.712zm-328.256-417.16l-6.428 11.135 11.134 6.428-2.143 3.712-11.134-6.429-6.429 11.135-3.711-2.143 6.428-11.135-11.134-6.428 2.143-3.712 11.134 6.429 6.429-11.135 3.711 2.143zm30-51.961l-6.428 11.135 11.134 6.428-2.143 3.712-11.134-6.429-6.429 11.135-3.711-2.143 6.428-11.135-11.134-6.428 2.143-3.712 11.134 6.429 6.429-11.135 3.711 2.143zm30-51.962l-6.428 11.135 11.134 6.428-2.143 3.712-11.134-6.429-6.429 11.135-3.711-2.143 6.428-11.135-11.134-6.428 2.143-3.712 11.134 6.429 6.429-11.135 3.711 2.143zm-8.038 133.923l-6.428 11.135 11.134 6.428-2.143 3.712-11.134-6.429-6.429 11.135-3.711-2.143 6.428-11.135-11.134-6.428 2.142-3.712 11.135 6.429 6.429-11.135 3.711 2.143zm30-51.961l-6.428 11.135 11.134 6.428-2.143 3.712-11.134-6.429-6.429 11.135-3.711-2.143 6.428-11.135-11.134-6.428 2.142-3.712 11.135 6.429 6.429-11.135 3.711 2.143zm30-51.962l-6.428 11.135 11.134 6.428-2.143 3.712-11.134-6.429-6.429 11.135-3.711-2.143 6.428-11.135-11.134-6.428 2.142-3.712 11.135 6.429 6.429-11.135 3.711 2.143zm-8.039 133.923l-6.428 11.135 11.134 6.428-2.143 3.712-11.134-6.429-6.429 11.135-3.711-2.143 6.428-11.135-11.134-6.428 2.142-3.712 11.135 6.429 6.429-11.135 3.711 2.143zm30-51.961l-6.428 11.135 11.134 6.428-2.143 3.712-11.134-6.429-6.429 11.135-3.711-2.143 6.428-11.135-11.134-6.428 2.142-3.712 11.135 6.429 6.429-11.135 3.711 2.143zm30.001-51.962l-6.43 11.135 11.135 6.428-2.143 3.712-11.134-6.429-6.429 11.135-3.711-2.143 6.428-11.135-11.134-6.428 2.142-3.712 11.135 6.429 6.429-11.135 3.711 2.143zM-344.154 573.15l-6.428 11.134 11.134 6.429-2.143 3.711-11.134-6.428-6.429 11.134-3.711-2.142 6.428-11.135-11.134-6.429 2.143-3.711 11.134 6.428 6.429-11.134 3.711 2.143zm30-51.962l-6.428 11.134 11.134 6.429-2.143 3.712-11.134-6.429-6.429 11.135-3.711-2.143 6.428-11.135-11.134-6.428 2.143-3.712 11.134 6.429 6.429-11.135 3.711 2.143zm30-51.961l-6.428 11.134 11.134 6.429-2.143 3.712-11.134-6.429-6.429 11.135-3.711-2.143 6.428-11.135-11.134-6.428 2.143-3.712 11.134 6.429 6.429-11.135 3.711 2.143zm-8.038 133.923l-6.428 11.134 11.134 6.429-2.143 3.711-11.134-6.428-6.429 11.134-3.711-2.142 6.428-11.135-11.134-6.429 2.142-3.711 11.135 6.428 6.429-11.134 3.711 2.143zm30-51.962l-6.428 11.134 11.134 6.429-2.143 3.712-11.134-6.429-6.429 11.135-3.711-2.143 6.428-11.135-11.134-6.428 2.142-3.712 11.135 6.429 6.429-11.135 3.711 2.143zm30-51.961l-6.428 11.134 11.134 6.429-2.143 3.712-11.134-6.429-6.429 11.135-3.711-2.143 6.428-11.135-11.134-6.428 2.142-3.712 11.135 6.429 6.429-11.135 3.711 2.143zm-8.039 133.923l-6.428 11.134 11.134 6.429-2.143 3.711-11.134-6.428-6.429 11.134-3.711-2.142 6.428-11.135-11.134-6.429 2.142-3.711 11.135 6.428 6.429-11.134 3.711 2.143zm30-51.962l-6.428 11.134 11.134 6.429-2.143 3.712-11.134-6.429-6.429 11.135-3.711-2.143 6.428-11.135-11.134-6.428 2.142-3.712 11.135 6.429 6.429-11.135 3.711 2.143zm30-51.961l-6.428 11.135 11.134 6.428-2.143 3.712-11.134-6.429-6.429 11.135-3.711-2.143 6.428-11.135-11.134-6.428 2.142-3.712 11.135 6.429 6.429-11.135 3.711 2.143zm81.962-21.962l-6.429 11.135 11.135 6.428-2.143 3.712-11.134-6.429-6.429 11.135-3.711-2.143 6.428-11.135-11.135-6.428 2.143-3.712 11.135 6.429 6.428-11.135 3.712 2.143zm30-51.961l-6.428 11.135 11.134 6.428-2.143 3.712-11.134-6.429-6.429 11.135-3.712-2.143 6.43-11.135-11.135-6.428 2.142-3.712 11.135 6.429 6.428-11.135 3.712 2.143zm30-51.962l-6.428 11.135 11.134 6.428-2.143 3.712-11.134-6.429-6.429 11.135-3.712-2.143 6.43-11.135-11.136-6.428 2.143-3.712 11.135 6.429 6.428-11.135 3.712 2.143zm-8.039 133.923l-6.429 11.135 11.135 6.428-2.143 3.712-11.134-6.429-6.429 11.135-3.711-2.143 6.428-11.135-11.135-6.428 2.143-3.712 11.135 6.429 6.428-11.135 3.712 2.143zm30-51.961l-6.429 11.135 11.135 6.428-2.143 3.712-11.134-6.429-6.429 11.135-3.712-2.143 6.429-11.135-11.135-6.428 2.143-3.712 11.135 6.429 6.428-11.135 3.712 2.143zm30-51.962l-6.429 11.135 11.135 6.428-2.143 3.712-11.134-6.429-6.429 11.135-3.712-2.143 6.429-11.135-11.135-6.428 2.143-3.712 11.135 6.429 6.428-11.135 3.712 2.143zM5.654 567.265L-.775 578.4l11.135 6.428-2.143 3.712-11.135-6.429-6.428 11.135-3.712-2.143 6.429-11.135-11.135-6.428 2.143-3.712 11.135 6.429 6.428-11.135 3.712 2.143zm30-51.961l-6.429 11.135 11.135 6.428-2.143 3.712-11.134-6.429-6.43 11.135-3.71-2.143 6.428-11.135-11.135-6.428 2.143-3.712 11.135 6.429 6.428-11.135 3.712 2.143zm30-51.962l-6.429 11.135 11.135 6.428-2.143 3.712-11.134-6.429-6.43 11.135-3.71-2.143 6.428-11.135-11.135-6.428 2.143-3.712 11.135 6.429 6.428-11.135 3.712 2.143zM-188.269 663.15l-6.429 11.134 11.135 6.429-2.143 3.711-11.134-6.428-6.429 11.134-3.711-2.142 6.428-11.135-11.135-6.429 2.143-3.711 11.135 6.428 6.429-11.134 3.711 2.143zm30-51.962l-6.429 11.134 11.135 6.429-2.143 3.712-11.134-6.429-6.429 11.135-3.711-2.143 6.428-11.135-11.135-6.428 2.143-3.712 11.135 6.429 6.429-11.135 3.711 2.143zm30-51.961l-6.429 11.135 11.135 6.428-2.143 3.712-11.134-6.429-6.429 11.135-3.711-2.143 6.428-11.135-11.135-6.428 2.143-3.712 11.135 6.429 6.429-11.135 3.711 2.143zm-8.039 133.923l-6.429 11.134 11.135 6.429-2.143 3.711-11.134-6.428-6.429 11.134-3.712-2.142 6.429-11.135-11.135-6.429 2.143-3.711 11.135 6.428 6.428-11.134 3.712 2.143zm30-51.962l-6.429 11.134 11.135 6.429-2.143 3.712-11.134-6.429-6.429 11.135-3.712-2.143 6.429-11.135-11.135-6.428 2.143-3.712 11.135 6.429 6.428-11.135 3.712 2.143zm30-51.961l-6.429 11.135 11.135 6.428-2.143 3.712-11.134-6.429-6.429 11.135-3.711-2.143 6.428-11.135-11.135-6.428 2.143-3.712 11.135 6.429 6.428-11.135 3.712 2.143zm-8.038 133.923l-6.429 11.134 11.135 6.429-2.143 3.711-11.135-6.428-6.428 11.134-3.712-2.142 6.429-11.135-11.135-6.429 2.143-3.711 11.135 6.428 6.428-11.134 3.712 2.143zm30-51.962l-6.429 11.134 11.135 6.429-2.143 3.712-11.134-6.429-6.43 11.135-3.71-2.143 6.428-11.135-11.135-6.428 2.143-3.712 11.135 6.429 6.428-11.135 3.712 2.143zm30-51.961l-6.429 11.134 11.135 6.429-2.143 3.712-11.134-6.429-6.43 11.135-3.71-2.143 6.428-11.135-11.135-6.428 2.143-3.712 11.135 6.429 6.428-11.135 3.712 2.143zm480.409-326.379l-11.134-6.429-6.429 11.135-3.711-2.143 6.428-11.135-11.134-6.428 2.142-3.712 11.135 6.429 6.429-11.135 3.711 2.143-6.428 11.134 11.134 6.429-2.143 3.712zm51.962 30l-11.135-6.429-6.428 11.135-3.712-2.143 6.429-11.135-11.135-6.428 2.143-3.712 11.134 6.429 6.429-11.135 3.712 2.143-6.429 11.134 11.135 6.429-2.143 3.712zm-81.962 21.961l-11.134-6.428-6.429 11.135-3.711-2.143 6.428-11.135-11.134-6.429 2.142-3.711 11.135 6.428 6.429-11.134 3.711 2.143-6.428 11.134 11.134 6.429-2.143 3.711zm103.923 60l-11.135-6.428-6.428 11.135-3.712-2.143 6.429-11.135-11.135-6.429 2.143-3.711 11.135 6.428 6.428-11.134 3.712 2.143-6.429 11.134 11.135 6.429-2.143 3.711zm-133.923-8.039l-11.134-6.428-6.429 11.134-3.711-2.142 6.428-11.135-11.134-6.429 2.142-3.711 11.135 6.428 6.429-11.134 3.711 2.143-6.428 11.134 11.134 6.429-2.143 3.711zm51.962 30l-11.135-6.428-6.428 11.134-3.712-2.142 6.429-11.135-11.135-6.429 2.143-3.711 11.134 6.428 6.429-11.134 3.712 2.143-6.429 11.134 11.135 6.429-2.143 3.711zm51.961 30l-11.134-6.428-6.429 11.134-3.712-2.142 6.429-11.135-11.135-6.429 2.143-3.711 11.135 6.428 6.428-11.134 3.712 2.143-6.429 11.134 11.135 6.429-2.143 3.711zM300.179 202.848l-11.135-6.429-6.429 11.135-3.711-2.143 6.428-11.135-11.134-6.428 2.143-3.712 11.134 6.429 6.429-11.135 3.711 2.143-6.428 11.134 11.134 6.429-2.142 3.712zm51.961 30l-11.135-6.429-6.428 11.135-3.712-2.143 6.429-11.135-11.135-6.428 2.143-3.712 11.135 6.429 6.428-11.135 3.712 2.143-6.429 11.134 11.135 6.429-2.143 3.712zm51.962 30l-11.135-6.429-6.428 11.135-3.712-2.143 6.429-11.135-11.135-6.428 2.143-3.712 11.135 6.429 6.428-11.135 3.712 2.143-6.429 11.134 11.135 6.429-2.143 3.712zm-133.923-8.039l-11.135-6.428-6.429 11.135-3.711-2.143 6.428-11.135-11.134-6.429 2.143-3.711 11.134 6.429 6.429-11.135 3.711 2.143-6.428 11.134 11.134 6.429-2.142 3.711zm103.923 60.001l-11.135-6.429-6.428 11.135-3.712-2.143 6.429-11.135-11.135-6.428 2.143-3.712 11.135 6.429 6.428-11.135 3.712 2.143-6.429 11.134 11.135 6.429-2.143 3.712zm-133.923-8.04l-11.135-6.428-6.429 11.134-3.711-2.142 6.428-11.135-11.134-6.429 2.143-3.711 11.134 6.428 6.429-11.134 3.711 2.143-6.428 11.134 11.134 6.429-2.142 3.711zm51.961 30l-11.135-6.428-6.428 11.134-3.712-2.142 6.429-11.135-11.135-6.429 2.143-3.711 11.135 6.428 6.428-11.134 3.712 2.143-6.429 11.134 11.135 6.429-2.143 3.711zm51.962 30l-11.135-6.428-6.428 11.134-3.712-2.142 6.429-11.135-11.135-6.429 2.143-3.711 11.135 6.428 6.428-11.134 3.712 2.143-6.429 11.134 11.135 6.429-2.143 3.711zm21.961 81.962l-11.134-6.428-6.429 11.134-3.711-2.142 6.428-11.135-11.134-6.429 2.142-3.711 11.135 6.428 6.429-11.134 3.711 2.143-6.428 11.134 11.134 6.429-2.143 3.711zm51.962 30l-11.135-6.428-6.429 11.134-3.711-2.142 6.429-11.135-11.135-6.429 2.143-3.711 11.134 6.428 6.429-11.134 3.711 2.143-6.428 11.134 11.135 6.429-2.143 3.711zm51.961 30l-11.135-6.428-6.428 11.134-3.712-2.142 6.429-11.135-11.135-6.429 2.143-3.711 11.135 6.428 6.428-11.134 3.712 2.143-6.429 11.134 11.135 6.429-2.143 3.711zm-133.923-8.038l-11.134-6.428L318.5 505.4l-3.711-2.143 6.428-11.134-11.134-6.429 2.142-3.711 11.135 6.428 6.429-11.134 3.711 2.143-6.428 11.134 11.134 6.429-2.143 3.711zm51.962 30l-11.135-6.428-6.429 11.134-3.711-2.143 6.429-11.134-11.135-6.429 2.143-3.711 11.134 6.428 6.429-11.134 3.711 2.143-6.428 11.134 11.135 6.429-2.143 3.711zm51.961 30l-11.135-6.428-6.428 11.134-3.712-2.143 6.429-11.134-11.135-6.429 2.143-3.711 11.135 6.428 6.428-11.134 3.712 2.143-6.429 11.134 11.135 6.429-2.143 3.711zm-133.923-8.039l-11.134-6.428-6.429 11.134-3.711-2.143 6.428-11.134-11.134-6.429 2.142-3.711 11.135 6.428 6.429-11.134 3.711 2.142-6.428 11.135 11.134 6.429-2.143 3.711zm51.962 30l-11.135-6.428-6.428 11.134-3.712-2.143 6.429-11.134-11.135-6.429 2.143-3.711 11.134 6.428 6.429-11.134 3.712 2.142-6.429 11.135 11.135 6.429-2.143 3.711zm51.961 30l-11.135-6.428-6.428 11.134-3.712-2.143 6.429-11.134-11.135-6.429 2.143-3.711 11.135 6.428 6.428-11.134 3.712 2.142-6.429 11.135 11.135 6.429-2.143 3.711zM210.179 358.732l-11.135-6.428-6.429 11.134-3.711-2.142 6.428-11.135-11.134-6.429 2.143-3.711 11.134 6.428 6.429-11.134 3.711 2.143-6.428 11.134 11.134 6.429-2.142 3.711zm-30 51.962l-11.135-6.428-6.429 11.134-3.711-2.143 6.428-11.134-11.134-6.429 2.143-3.711 11.134 6.428 6.429-11.134 3.711 2.143-6.428 11.134 11.134 6.429-2.142 3.711zm51.961 30l-11.135-6.428-6.428 11.134-3.712-2.143 6.429-11.134-11.135-6.429 2.143-3.711 11.135 6.428 6.428-11.134 3.712 2.143-6.429 11.134 11.135 6.429-2.143 3.711zm-30 51.961l-11.135-6.428-6.428 11.134-3.712-2.143 6.429-11.134-11.135-6.429 2.143-3.711 11.135 6.428 6.428-11.134 3.712 2.142-6.429 11.135 11.135 6.429-2.143 3.711zm51.962 30l-11.135-6.428-6.428 11.134-3.712-2.143 6.429-11.134-11.135-6.429 2.143-3.711 11.135 6.428 6.428-11.134 3.712 2.142-6.429 11.135 11.135 6.429-2.143 3.711zM-74.154 105.496l-6.428 11.135 11.134 6.429-2.143 3.711-11.134-6.428-6.429 11.134-3.711-2.143 6.428-11.134-11.134-6.429 2.143-3.711 11.134 6.428 6.429-11.134 3.711 2.142zm30-51.961l-6.428 11.134 11.134 6.429-2.142 3.711-11.135-6.428-6.429 11.134-3.711-2.143 6.428-11.134-11.134-6.429 2.143-3.711 11.134 6.428 6.429-11.134 3.711 2.142zm30-51.962l-6.428 11.134 11.134 6.429-2.143 3.711-11.134-6.428-6.429 11.134-3.711-2.143 6.428-11.134-11.134-6.429 2.143-3.711 11.134 6.428L-17.865-.57l3.711 2.143zm-8.038 133.923l-6.428 11.135 11.134 6.429-2.143 3.711-11.134-6.428-6.429 11.134-3.711-2.143 6.428-11.134-11.134-6.429 2.142-3.711 11.135 6.428 6.429-11.134 3.711 2.142zm30-51.962L1.38 94.67l11.134 6.429-2.143 3.711-11.134-6.428-6.429 11.134-3.711-2.143 6.428-11.134-11.134-6.429 2.143-3.711 11.134 6.428 6.429-11.134 3.711 2.142zm30-51.961L31.38 42.707l11.134 6.429-2.143 3.711-11.134-6.428-6.429 11.134-3.711-2.142 6.428-11.135-11.134-6.429 2.143-3.711 11.134 6.428 6.429-11.134 3.711 2.143zM29.77 165.496l-6.43 11.135 11.135 6.429-2.143 3.711-11.134-6.428-6.429 11.134-3.711-2.143 6.428-11.134-11.134-6.429 2.142-3.711 11.135 6.428 6.429-11.134 3.711 2.142zm30-51.962l-6.43 11.135 11.135 6.429-2.143 3.711-11.134-6.428-6.429 11.134-3.711-2.143 6.428-11.134-11.134-6.429 2.142-3.711 11.135 6.428 6.429-11.134 3.711 2.142zm30-51.961l-6.43 11.134 11.135 6.429-2.143 3.711-11.134-6.428-6.429 11.134-3.711-2.142 6.428-11.135-11.134-6.429 2.142-3.711 11.135 6.428 6.429-11.134 3.711 2.143zM-164.154 261.38l-6.428 11.135 11.134 6.428-2.143 3.712-11.134-6.429-6.429 11.135-3.711-2.143 6.428-11.135-11.134-6.428 2.143-3.712 11.134 6.429 6.429-11.135 3.711 2.143zm30-51.961l-6.428 11.135 11.134 6.428-2.143 3.712-11.134-6.429-6.429 11.135-3.711-2.143 6.428-11.134-11.134-6.429 2.143-3.712 11.134 6.429 6.429-11.135 3.711 2.143zm30-51.962l-6.428 11.135 11.134 6.429-2.143 3.711-11.134-6.429-6.429 11.135-3.711-2.143 6.428-11.134-11.134-6.429 2.143-3.711 11.134 6.428 6.429-11.135 3.711 2.143zm-8.038 133.923l-6.428 11.135 11.134 6.428-2.143 3.712-11.134-6.429-6.429 11.135-3.711-2.143 6.428-11.135-11.134-6.428 2.142-3.712 11.135 6.429 6.429-11.135 3.711 2.143zm30-51.961l-6.428 11.135 11.134 6.428-2.143 3.712-11.134-6.429-6.429 11.135-3.711-2.143 6.428-11.134-11.134-6.429 2.142-3.712 11.135 6.429 6.429-11.135 3.711 2.143zm30-51.962l-6.428 11.135 11.134 6.429-2.143 3.711-11.134-6.429-6.429 11.135-3.711-2.143 6.428-11.134-11.134-6.429 2.142-3.711 11.135 6.428 6.429-11.134 3.711 2.142zM-60.23 321.38l-6.43 11.135 11.135 6.428-2.143 3.712-11.134-6.429-6.429 11.135-3.711-2.143 6.428-11.135-11.134-6.428 2.142-3.712 11.135 6.429 6.429-11.135 3.711 2.143zm30-51.961l-6.43 11.135 11.135 6.428-2.143 3.712-11.134-6.429-6.429 11.135-3.711-2.143 6.428-11.134-11.134-6.429 2.142-3.712 11.135 6.429 6.429-11.135 3.711 2.143zm30-51.962l-6.43 11.135 11.135 6.429-2.143 3.711-11.134-6.429-6.429 11.135-3.711-2.143 6.428-11.134-11.134-6.429 2.142-3.711 11.135 6.428 6.429-11.135 3.711 2.143zm111.961-73.923l-6.429 11.135 11.135 6.429-2.143 3.711-11.134-6.428-6.429 11.134-3.712-2.143 6.43-11.134-11.135-6.429 2.142-3.711 11.135 6.428 6.429-11.134 3.711 2.142zm30-51.961l-6.429 11.134 11.135 6.429-2.143 3.711-11.134-6.428-6.429 11.134-3.711-2.143 6.428-11.134-11.135-6.429 2.143-3.711 11.135 6.428 6.429-11.134 3.711 2.143zm21.961 81.961l-6.429 11.135 11.135 6.429-2.143 3.711-11.134-6.428-6.429 11.134-3.712-2.143 6.429-11.134-11.135-6.429 2.143-3.711 11.135 6.428 6.428-11.134 3.712 2.142zm30.001-51.961l-6.429 11.134 11.134 6.429-2.142 3.711-11.135-6.428-6.428 11.134-3.712-2.143 6.429-11.134-11.135-6.429 2.143-3.711 11.134 6.428 6.429-11.134 3.712 2.143zm51.961 30l-6.429 11.134 11.135 6.429-2.143 3.711-11.135-6.428-6.428 11.134-3.712-2.143 6.429-11.134-11.135-6.429 2.143-3.711 11.135 6.428 6.428-11.134 3.712 2.143zM-8.269 351.38l-6.428 11.135 11.134 6.428-2.143 3.712-11.134-6.429-6.429 11.135-3.712-2.143 6.43-11.135-11.136-6.428 2.143-3.712 11.135 6.429 6.428-11.135 3.712 2.143zm30-51.961l-6.429 11.135 11.135 6.428-2.143 3.712-11.134-6.429L6.73 325.4l-3.711-2.143 6.428-11.134-11.135-6.429 2.143-3.712 11.135 6.429 6.429-11.135 3.711 2.143zm21.961 81.961l-6.429 11.135 11.135 6.428-2.143 3.712-11.134-6.429-6.429 11.135-3.712-2.143 6.429-11.135-11.135-6.428 2.143-3.712 11.135 6.429 6.428-11.135 3.712 2.143zm30-51.961l-6.429 11.135 11.135 6.428-2.143 3.712-11.134-6.429-6.429 11.135-3.712-2.143 6.429-11.134-11.135-6.429 2.143-3.712 11.135 6.429 6.428-11.135 3.712 2.143zm30-51.962l-6.429 11.135 11.135 6.429-2.143 3.711-11.134-6.429-6.429 11.135-3.712-2.143 6.429-11.134-11.135-6.429 2.143-3.711 11.135 6.428 6.428-11.135 3.712 2.143zM95.654 411.38l-6.429 11.135 11.135 6.428-2.143 3.712-11.135-6.429-6.428 11.135-3.712-2.143 6.429-11.135-11.135-6.428 2.143-3.712 11.135 6.429 6.428-11.135 3.712 2.143zm30-51.961l-6.429 11.135 11.135 6.428-2.143 3.712-11.135-6.429-6.428 11.135-3.712-2.143 6.429-11.134-11.135-6.429 2.143-3.712 11.135 6.429 6.428-11.135 3.712 2.143zm30-51.962l-6.429 11.135 11.135 6.429-2.143 3.711-11.135-6.429-6.428 11.135-3.712-2.143 6.429-11.134-11.135-6.429 2.143-3.711 11.135 6.428 6.428-11.135 3.712 2.143z" fill="#333"/></svg>