<svg width="533" height="840" viewBox="0 0 533 840" fill="none" xmlns="http://www.w3.org/2000/svg">
<path d="M276.063 604.617L264.929 598.189L258.5 609.323L254.789 607.18L261.217 596.046L250.083 589.617L252.225 585.906L263.36 592.334L269.789 581.2L273.5 583.342L267.072 594.477L278.206 600.906L276.063 604.617Z" fill="#333333"/>
<path d="M328.025 634.617L316.89 628.189L310.462 639.323L306.75 637.18L313.179 626.046L302.044 619.617L304.187 615.906L315.321 622.334L321.75 611.2L325.462 613.342L319.033 624.477L330.168 630.906L328.025 634.617Z" fill="#333333"/>
<path d="M379.986 664.617L368.851 658.189L362.423 669.323L358.711 667.18L365.14 656.046L354.005 649.617L356.148 645.906L367.283 652.334L373.711 641.2L377.423 643.342L370.994 654.477L382.129 660.906L379.986 664.617Z" fill="#333333"/>
<path d="M349.986 716.578L338.851 710.15L332.423 721.284L328.711 719.141L335.14 708.007L324.005 701.578L326.148 697.867L337.283 704.295L343.711 693.161L347.423 695.303L340.994 706.438L352.129 712.867L349.986 716.578Z" fill="#333333"/>
<path d="M216.063 708.54L204.929 702.111L198.5 713.246L194.789 711.103L201.217 699.969L190.082 693.54L192.225 689.828L203.36 696.257L209.789 685.122L213.5 687.265L207.071 698.4L218.206 704.828L216.063 708.54Z" fill="#333333"/>
<path d="M268.025 738.54L256.89 732.111L250.461 743.246L246.75 741.103L253.179 729.969L242.044 723.54L244.187 719.828L255.321 726.257L261.75 715.122L265.461 717.265L259.033 728.4L270.168 734.828L268.025 738.54Z" fill="#333333"/>
<path d="M319.986 768.54L308.851 762.111L302.423 773.246L298.711 771.103L305.14 759.969L294.005 753.54L296.148 749.828L307.283 756.257L313.711 745.122L317.423 747.265L310.994 758.4L322.129 764.828L319.986 768.54Z" fill="#333333"/>
<path d="M224.102 574.617L212.967 568.189L206.539 579.323L202.827 577.18L209.256 566.046L198.121 559.617L200.264 555.906L211.399 562.334L217.827 551.2L221.539 553.342L215.11 564.477L226.245 570.906L224.102 574.617Z" fill="#333333"/>
<path d="M90.179 566.578L79.0444 560.149L72.6158 571.284L68.9043 569.141L75.3329 558.007L64.1982 551.578L66.3411 547.867L77.4757 554.295L83.9043 543.16L87.6158 545.303L81.1873 556.438L92.3219 562.867L90.179 566.578Z" fill="#333333"/>
<path d="M142.14 596.578L131.005 590.149L124.577 601.284L120.865 599.141L127.294 588.007L116.159 581.578L118.302 577.867L129.437 584.295L135.865 573.16L139.577 575.303L133.148 586.438L144.283 592.867L142.14 596.578Z" fill="#333333"/>
<path d="M194.102 626.578L182.967 620.149L176.539 631.284L172.827 629.141L179.256 618.007L168.121 611.578L170.264 607.867L181.399 614.295L187.827 603.16L191.539 605.303L185.11 616.438L196.245 622.867L194.102 626.578Z" fill="#333333"/>
<path d="M60.179 618.54L49.0444 612.111L42.6158 623.246L38.9043 621.103L45.3329 609.969L34.1982 603.54L36.3411 599.828L47.4757 606.257L53.9043 595.122L57.6158 597.265L51.1872 608.4L62.3218 614.828L60.179 618.54Z" fill="#333333"/>
<path d="M112.14 648.54L101.005 642.111L94.5767 653.246L90.8652 651.103L97.2938 639.969L86.1591 633.54L88.302 629.828L99.4366 636.257L105.865 625.122L109.577 627.265L103.148 638.4L114.283 644.828L112.14 648.54Z" fill="#333333"/>
<path d="M164.102 678.54L152.967 672.111L146.539 683.246L142.827 681.103L149.256 669.969L138.121 663.54L140.264 659.828L151.399 666.257L157.827 655.122L161.539 657.265L155.11 668.4L166.245 674.828L164.102 678.54Z" fill="#333333"/>
<path d="M186.063 760.502L174.929 754.073L168.5 765.208L164.789 763.065L171.217 751.93L160.083 745.502L162.225 741.79L173.36 748.219L179.789 737.084L183.5 739.227L177.072 750.362L188.206 756.79L186.063 760.502Z" fill="#333333"/>
<path d="M238.025 790.502L226.89 784.073L220.461 795.208L216.75 793.065L223.179 781.93L212.044 775.502L214.187 771.79L225.321 778.219L231.75 767.084L235.461 769.227L229.033 780.362L240.168 786.79L238.025 790.502Z" fill="#333333"/>
<path d="M289.986 820.502L278.851 814.073L272.423 825.208L268.711 823.065L275.14 811.93L264.005 805.502L266.148 801.79L277.283 808.219L283.711 797.084L287.423 799.227L280.994 810.362L292.129 816.79L289.986 820.502Z" fill="#333333"/>
<path d="M156.063 812.463L144.928 806.034L138.5 817.169L134.788 815.026L141.217 803.891L130.082 797.463L132.225 793.751L143.359 800.18L149.788 789.045L153.5 791.188L147.071 802.323L158.206 808.751L156.063 812.463Z" fill="#333333"/>
<path d="M208.025 842.463L196.89 836.034L190.461 847.169L186.75 845.026L193.179 833.891L182.044 827.463L184.187 823.751L195.321 830.18L201.75 819.045L205.461 821.188L199.033 832.323L210.168 838.751L208.025 842.463Z" fill="#333333"/>
<path d="M259.986 872.463L248.851 866.034L242.423 877.169L238.711 875.026L245.14 863.891L234.005 857.463L236.148 853.751L247.283 860.18L253.711 849.045L257.423 851.188L250.994 862.323L262.129 868.751L259.986 872.463Z" fill="#333333"/>
<path d="M126.063 864.425L114.928 857.996L108.5 869.131L104.788 866.988L111.217 855.853L100.082 849.425L102.225 845.713L113.359 852.142L119.788 841.007L123.5 843.15L117.071 854.285L128.206 860.713L126.063 864.425Z" fill="#333333"/>
<path d="M178.025 894.425L166.89 887.996L160.462 899.131L156.75 896.988L163.179 885.853L152.044 879.425L154.187 875.713L165.321 882.142L171.75 871.007L175.462 873.15L169.033 884.285L180.168 890.713L178.025 894.425Z" fill="#333333"/>
<path d="M229.986 924.425L218.851 917.996L212.423 929.131L208.711 926.988L215.14 915.853L204.005 909.425L206.148 905.713L217.283 912.142L223.711 901.007L227.423 903.15L220.994 914.285L232.129 920.713L229.986 924.425Z" fill="#333333"/>
<path d="M134.102 730.501L122.967 724.072L116.539 735.207L112.827 733.064L119.256 721.93L108.121 715.501L110.264 711.789L121.399 718.218L127.827 707.083L131.539 709.226L125.11 720.361L136.245 726.789L134.102 730.501Z" fill="#333333"/>
<path d="M0.179013 722.463L-10.9556 716.034L-17.3842 727.169L-21.0957 725.026L-14.6671 713.891L-25.8018 707.463L-23.6589 703.751L-12.5243 710.18L-6.09571 699.045L-2.38419 701.188L-8.81275 712.323L2.32187 718.751L0.179013 722.463Z" fill="#333333"/>
<path d="M52.1399 752.463L41.0053 746.034L34.5767 757.169L30.8652 755.026L37.2938 743.891L26.1592 737.463L28.302 733.751L39.4366 740.18L45.8652 729.045L49.5767 731.188L43.1482 742.323L54.2828 748.751L52.1399 752.463Z" fill="#333333"/>
<path d="M104.102 782.463L92.9672 776.034L86.5387 787.169L82.8271 785.026L89.2557 773.891L78.1211 767.463L80.2639 763.751L91.3986 770.18L97.8271 759.045L101.539 761.188L95.1101 772.323L106.245 778.751L104.102 782.463Z" fill="#333333"/>
<path d="M-29.821 774.425L-40.9556 767.996L-47.3842 779.131L-51.0957 776.988L-44.6671 765.853L-55.8018 759.425L-53.6589 755.713L-42.5243 762.142L-36.0957 751.007L-32.3842 753.15L-38.8128 764.285L-27.6782 770.713L-29.821 774.425Z" fill="#333333"/>
<path d="M22.14 804.425L11.0053 797.996L4.57675 809.131L0.865231 806.988L7.29379 795.853L-3.84082 789.425L-1.69797 785.713L9.43664 792.142L15.8652 781.007L19.5767 783.15L13.1482 794.285L24.2828 800.713L22.14 804.425Z" fill="#333333"/>
<path d="M74.1019 834.425L62.9673 827.996L56.5387 839.131L52.8271 836.988L59.2557 825.853L48.1211 819.425L50.2639 815.713L61.3986 822.142L67.8271 811.007L71.5387 813.15L65.1101 824.285L76.2447 830.713L74.1019 834.425Z" fill="#333333"/>
<path d="M-254.154 417.265L-260.582 428.4L-249.448 434.828L-251.591 438.54L-262.725 432.111L-269.154 443.246L-272.865 441.103L-266.437 429.968L-277.571 423.54L-275.428 419.828L-264.294 426.257L-257.865 415.122L-254.154 417.265Z" fill="#333333"/>
<path d="M-224.154 365.304L-230.582 376.439L-219.448 382.867L-221.591 386.579L-232.725 380.15L-239.154 391.285L-242.865 389.142L-236.437 378.007L-247.571 371.579L-245.428 367.867L-234.294 374.296L-227.865 363.161L-224.154 365.304Z" fill="#333333"/>
<path d="M-194.154 313.342L-200.582 324.477L-189.448 330.905L-191.591 334.617L-202.725 328.188L-209.154 339.323L-212.865 337.18L-206.437 326.045L-217.571 319.617L-215.428 315.905L-204.294 322.334L-197.865 311.199L-194.154 313.342Z" fill="#333333"/>
<path d="M-202.192 447.265L-208.62 458.4L-197.486 464.828L-199.629 468.54L-210.763 462.111L-217.192 473.246L-220.903 471.103L-214.475 459.968L-225.609 453.54L-223.467 449.828L-212.332 456.257L-205.903 445.122L-202.192 447.265Z" fill="#333333"/>
<path d="M-172.192 395.304L-178.62 406.439L-167.486 412.867L-169.629 416.579L-180.763 410.15L-187.192 421.285L-190.903 419.142L-184.475 408.007L-195.609 401.579L-193.467 397.867L-182.332 404.296L-175.903 393.161L-172.192 395.304Z" fill="#333333"/>
<path d="M-142.192 343.342L-148.62 354.477L-137.486 360.905L-139.629 364.617L-150.763 358.188L-157.192 369.323L-160.903 367.18L-154.475 356.045L-165.609 349.617L-163.467 345.905L-152.332 352.334L-145.903 341.199L-142.192 343.342Z" fill="#333333"/>
<path d="M-150.231 477.265L-156.659 488.4L-145.525 494.828L-147.668 498.54L-158.802 492.111L-165.231 503.246L-168.942 501.103L-162.514 489.968L-173.648 483.54L-171.506 479.828L-160.371 486.257L-153.942 475.122L-150.231 477.265Z" fill="#333333"/>
<path d="M-120.231 425.304L-126.659 436.439L-115.525 442.867L-117.668 446.579L-128.802 440.15L-135.231 451.285L-138.942 449.142L-132.514 438.007L-143.648 431.579L-141.506 427.867L-130.371 434.296L-123.942 423.161L-120.231 425.304Z" fill="#333333"/>
<path d="M-90.2309 373.342L-96.6594 384.477L-85.5248 390.905L-87.6677 394.617L-98.8023 388.188L-105.231 399.323L-108.942 397.18L-102.514 386.045L-113.648 379.617L-111.506 375.905L-100.371 382.334L-93.9424 371.199L-90.2309 373.342Z" fill="#333333"/>
<path d="M-344.154 573.15L-350.582 584.284L-339.448 590.713L-341.591 594.424L-352.725 587.996L-359.154 599.13L-362.865 596.988L-356.437 585.853L-367.571 579.424L-365.428 575.713L-354.294 582.141L-347.865 571.007L-344.154 573.15Z" fill="#333333"/>
<path d="M-314.154 521.188L-320.582 532.322L-309.448 538.751L-311.591 542.463L-322.725 536.034L-329.154 547.169L-332.865 545.026L-326.437 533.891L-337.571 527.463L-335.428 523.751L-324.294 530.18L-317.865 519.045L-314.154 521.188Z" fill="#333333"/>
<path d="M-284.154 469.227L-290.582 480.361L-279.448 486.79L-281.591 490.502L-292.725 484.073L-299.154 495.208L-302.865 493.065L-296.437 481.93L-307.571 475.502L-305.428 471.79L-294.294 478.219L-287.865 467.084L-284.154 469.227Z" fill="#333333"/>
<path d="M-292.192 603.15L-298.62 614.284L-287.486 620.713L-289.629 624.424L-300.763 617.996L-307.192 629.13L-310.903 626.988L-304.475 615.853L-315.609 609.424L-313.467 605.713L-302.332 612.141L-295.903 601.007L-292.192 603.15Z" fill="#333333"/>
<path d="M-262.192 551.188L-268.62 562.322L-257.486 568.751L-259.629 572.463L-270.763 566.034L-277.192 577.169L-280.903 575.026L-274.475 563.891L-285.609 557.463L-283.467 553.751L-272.332 560.18L-265.903 549.045L-262.192 551.188Z" fill="#333333"/>
<path d="M-232.192 499.227L-238.62 510.361L-227.486 516.79L-229.629 520.502L-240.763 514.073L-247.192 525.208L-250.903 523.065L-244.475 511.93L-255.609 505.502L-253.467 501.79L-242.332 508.219L-235.903 497.084L-232.192 499.227Z" fill="#333333"/>
<path d="M-240.231 633.15L-246.659 644.284L-235.525 650.713L-237.668 654.424L-248.802 647.996L-255.231 659.13L-258.942 656.988L-252.514 645.853L-263.648 639.424L-261.506 635.713L-250.371 642.141L-243.942 631.007L-240.231 633.15Z" fill="#333333"/>
<path d="M-210.231 581.188L-216.659 592.322L-205.525 598.751L-207.668 602.463L-218.802 596.034L-225.231 607.169L-228.942 605.026L-222.514 593.891L-233.648 587.463L-231.506 583.751L-220.371 590.18L-213.942 579.045L-210.231 581.188Z" fill="#333333"/>
<path d="M-180.231 529.227L-186.659 540.362L-175.525 546.79L-177.668 550.502L-188.802 544.073L-195.231 555.208L-198.942 553.065L-192.514 541.93L-203.648 535.502L-201.506 531.79L-190.371 538.219L-183.942 527.084L-180.231 529.227Z" fill="#333333"/>
<path d="M-98.269 507.265L-104.698 518.4L-93.5629 524.828L-95.7058 528.54L-106.84 522.111L-113.269 533.246L-116.98 531.103L-110.552 519.968L-121.687 513.54L-119.544 509.828L-108.409 516.257L-101.981 505.122L-98.269 507.265Z" fill="#333333"/>
<path d="M-68.269 455.304L-74.6975 466.439L-63.5629 472.867L-65.7058 476.579L-76.8404 470.15L-83.269 481.285L-86.9805 479.142L-80.5519 468.007L-91.6865 461.579L-89.5437 457.867L-78.4091 464.296L-71.9805 453.161L-68.269 455.304Z" fill="#333333"/>
<path d="M-38.269 403.342L-44.6975 414.477L-33.5629 420.905L-35.7058 424.617L-46.8404 418.188L-53.269 429.323L-56.9805 427.18L-50.5519 416.045L-61.6865 409.617L-59.5437 405.905L-48.4091 412.334L-41.9805 401.199L-38.269 403.342Z" fill="#333333"/>
<path d="M-46.308 537.265L-52.7366 548.4L-41.602 554.828L-43.7448 558.54L-54.8794 552.111L-61.308 563.246L-65.0195 561.103L-58.591 549.968L-69.7256 543.54L-67.5827 539.828L-56.4481 546.257L-50.0195 535.122L-46.308 537.265Z" fill="#333333"/>
<path d="M-16.308 485.304L-22.7366 496.439L-11.602 502.867L-13.7448 506.579L-24.8794 500.15L-31.308 511.285L-35.0195 509.142L-28.591 498.007L-39.7256 491.579L-37.5827 487.867L-26.4481 494.296L-20.0196 483.161L-16.308 485.304Z" fill="#333333"/>
<path d="M13.692 433.342L7.26343 444.477L18.398 450.905L16.2552 454.617L5.12057 448.188L-1.30799 459.323L-5.01953 457.18L1.40903 446.045L-9.72559 439.617L-7.5827 435.905L3.55191 442.334L9.98047 431.199L13.692 433.342Z" fill="#333333"/>
<path d="M5.6539 567.265L-0.774691 578.4L10.3599 584.828L8.21707 588.54L-2.91754 582.111L-9.3461 593.246L-13.0577 591.103L-6.62906 579.968L-17.7637 573.54L-15.6208 569.828L-4.48621 576.257L1.94235 565.122L5.6539 567.265Z" fill="#333333"/>
<path d="M35.6539 515.304L29.2253 526.439L40.36 532.867L38.2171 536.579L27.0825 530.15L20.6539 541.285L16.9424 539.142L23.3709 528.007L12.2363 521.579L14.3792 517.867L25.5138 524.296L31.9424 513.161L35.6539 515.304Z" fill="#333333"/>
<path d="M65.6539 463.342L59.2253 474.477L70.3599 480.905L68.2171 484.617L57.0825 478.188L50.6539 489.323L46.9424 487.18L53.3709 476.045L42.2363 469.617L44.3791 465.905L55.5138 472.334L61.9424 461.199L65.6539 463.342Z" fill="#333333"/>
<path d="M-188.269 663.15L-194.698 674.284L-183.563 680.713L-185.706 684.424L-196.84 677.996L-203.269 689.13L-206.98 686.988L-200.552 675.853L-211.687 669.424L-209.544 665.713L-198.409 672.141L-191.98 661.007L-188.269 663.15Z" fill="#333333"/>
<path d="M-158.269 611.188L-164.698 622.322L-153.563 628.751L-155.706 632.463L-166.84 626.034L-173.269 637.169L-176.98 635.026L-170.552 623.891L-181.687 617.463L-179.544 613.751L-168.409 620.18L-161.98 609.045L-158.269 611.188Z" fill="#333333"/>
<path d="M-128.269 559.227L-134.698 570.362L-123.563 576.79L-125.706 580.502L-136.84 574.073L-143.269 585.208L-146.98 583.065L-140.552 571.93L-151.687 565.502L-149.544 561.79L-138.409 568.219L-131.98 557.084L-128.269 559.227Z" fill="#333333"/>
<path d="M-136.308 693.15L-142.737 704.284L-131.602 710.713L-133.745 714.424L-144.879 707.996L-151.308 719.13L-155.02 716.988L-148.591 705.853L-159.726 699.424L-157.583 695.713L-146.448 702.141L-140.02 691.007L-136.308 693.15Z" fill="#333333"/>
<path d="M-106.308 641.188L-112.737 652.322L-101.602 658.751L-103.745 662.463L-114.879 656.034L-121.308 667.169L-125.02 665.026L-118.591 653.891L-129.726 647.463L-127.583 643.751L-116.448 650.18L-110.02 639.045L-106.308 641.188Z" fill="#333333"/>
<path d="M-76.308 589.227L-82.7366 600.362L-71.602 606.79L-73.7448 610.502L-84.8794 604.073L-91.308 615.208L-95.0195 613.065L-88.591 601.93L-99.7256 595.502L-97.5827 591.79L-86.4481 598.219L-80.0195 587.084L-76.308 589.227Z" fill="#333333"/>
<path d="M-84.3461 723.15L-90.7747 734.284L-79.6401 740.713L-81.7829 744.424L-92.9175 737.996L-99.3461 749.13L-103.058 746.988L-96.6291 735.853L-107.764 729.424L-105.621 725.713L-94.4862 732.141L-88.0577 721.007L-84.3461 723.15Z" fill="#333333"/>
<path d="M-54.3461 671.188L-60.7747 682.322L-49.64 688.751L-51.7829 692.463L-62.9175 686.034L-69.3461 697.169L-73.0577 695.026L-66.6291 683.891L-77.7637 677.463L-75.6208 673.751L-64.4862 680.18L-58.0577 669.045L-54.3461 671.188Z" fill="#333333"/>
<path d="M-24.3461 619.227L-30.7747 630.361L-19.6401 636.79L-21.7829 640.502L-32.9175 634.073L-39.3461 645.208L-43.0577 643.065L-36.6291 631.93L-47.7637 625.502L-45.6209 621.79L-34.4862 628.219L-28.0577 617.084L-24.3461 619.227Z" fill="#333333"/>
<path d="M456.063 292.848L444.929 286.419L438.5 297.554L434.789 295.411L441.217 284.276L430.083 277.848L432.225 274.136L443.36 280.565L449.789 269.43L453.5 271.573L447.072 282.707L458.206 289.136L456.063 292.848Z" fill="#333333"/>
<path d="M508.025 322.848L496.89 316.419L490.462 327.554L486.75 325.411L493.179 314.276L482.044 307.848L484.187 304.136L495.321 310.565L501.75 299.43L505.462 301.573L499.033 312.707L510.168 319.136L508.025 322.848Z" fill="#333333"/>
<path d="M426.063 344.809L414.929 338.381L408.5 349.516L404.789 347.373L411.217 336.238L400.083 329.809L402.225 326.098L413.36 332.526L419.789 321.392L423.5 323.535L417.072 334.669L428.206 341.098L426.063 344.809Z" fill="#333333"/>
<path d="M529.986 404.809L518.851 398.381L512.423 409.516L508.711 407.373L515.14 396.238L504.005 389.809L506.148 386.098L517.283 392.526L523.711 381.392L527.423 383.535L520.994 394.669L532.129 401.098L529.986 404.809Z" fill="#333333"/>
<path d="M396.063 396.77L384.929 390.342L378.5 401.476L374.789 399.334L381.217 388.199L370.083 381.77L372.225 378.059L383.36 384.487L389.789 373.353L393.5 375.496L387.072 386.63L398.206 393.059L396.063 396.77Z" fill="#333333"/>
<path d="M448.025 426.77L436.89 420.342L430.462 431.476L426.75 429.334L433.179 418.199L422.044 411.77L424.187 408.059L435.321 414.487L441.75 403.353L445.462 405.496L439.033 416.63L450.168 423.059L448.025 426.77Z" fill="#333333"/>
<path d="M499.986 456.77L488.852 450.342L482.423 461.476L478.711 459.334L485.14 448.199L474.005 441.77L476.148 438.059L487.283 444.487L493.711 433.353L497.423 435.496L490.994 446.63L502.129 453.059L499.986 456.77Z" fill="#333333"/>
<path d="M300.179 202.848L289.044 196.419L282.615 207.554L278.904 205.411L285.332 194.276L274.198 187.848L276.341 184.136L287.475 190.565L293.904 179.43L297.615 181.573L291.187 192.707L302.321 199.136L300.179 202.848Z" fill="#333333"/>
<path d="M352.14 232.848L341.005 226.419L334.577 237.554L330.865 235.411L337.294 224.276L326.159 217.848L328.302 214.136L339.437 220.565L345.865 209.43L349.577 211.573L343.148 222.707L354.283 229.136L352.14 232.848Z" fill="#333333"/>
<path d="M404.102 262.848L392.967 256.419L386.539 267.554L382.827 265.411L389.256 254.276L378.121 247.848L380.264 244.136L391.399 250.565L397.827 239.43L401.539 241.573L395.11 252.707L406.245 259.136L404.102 262.848Z" fill="#333333"/>
<path d="M270.179 254.809L259.044 248.381L252.615 259.516L248.904 257.373L255.332 246.238L244.198 239.809L246.341 236.098L257.475 242.527L263.904 231.392L267.615 233.535L261.187 244.669L272.321 251.098L270.179 254.809Z" fill="#333333"/>
<path d="M374.102 314.81L362.967 308.381L356.539 319.516L352.827 317.373L359.256 306.238L348.121 299.81L350.264 296.098L361.399 302.527L367.827 291.392L371.539 293.535L365.11 304.669L376.245 311.098L374.102 314.81Z" fill="#333333"/>
<path d="M240.179 306.77L229.044 300.342L222.615 311.476L218.904 309.334L225.332 298.199L214.198 291.77L216.341 288.059L227.475 294.487L233.904 283.353L237.615 285.496L231.187 296.63L242.321 303.059L240.179 306.77Z" fill="#333333"/>
<path d="M292.14 336.77L281.005 330.342L274.577 341.476L270.865 339.334L277.294 328.199L266.159 321.77L268.302 318.059L279.437 324.487L285.865 313.353L289.577 315.496L283.148 326.63L294.283 333.059L292.14 336.77Z" fill="#333333"/>
<path d="M344.102 366.77L332.967 360.342L326.539 371.476L322.827 369.334L329.256 358.199L318.121 351.77L320.264 348.059L331.399 354.487L337.827 343.353L341.539 345.496L335.11 356.63L346.245 363.059L344.102 366.77Z" fill="#333333"/>
<path d="M366.063 448.732L354.929 442.304L348.5 453.438L344.789 451.296L351.217 440.161L340.083 433.732L342.225 430.021L353.36 436.449L359.789 425.315L363.5 427.458L357.072 438.592L368.206 445.021L366.063 448.732Z" fill="#333333"/>
<path d="M418.025 478.732L406.89 472.304L400.461 483.438L396.75 481.296L403.179 470.161L392.044 463.732L394.187 460.021L405.321 466.449L411.75 455.315L415.461 457.458L409.033 468.592L420.168 475.021L418.025 478.732Z" fill="#333333"/>
<path d="M469.986 508.732L458.851 502.304L452.423 513.438L448.711 511.296L455.14 500.161L444.005 493.732L446.148 490.021L457.283 496.449L463.711 485.315L467.423 487.458L460.994 498.592L472.129 505.021L469.986 508.732Z" fill="#333333"/>
<path d="M336.063 500.694L324.929 494.266L318.5 505.4L314.789 503.257L321.217 492.123L310.083 485.694L312.225 481.983L323.36 488.411L329.789 477.277L333.5 479.42L327.072 490.554L338.206 496.983L336.063 500.694Z" fill="#333333"/>
<path d="M388.025 530.694L376.89 524.266L370.461 535.4L366.75 533.257L373.179 522.123L362.044 515.694L364.187 511.983L375.321 518.411L381.75 507.277L385.461 509.42L379.033 520.554L390.168 526.983L388.025 530.694Z" fill="#333333"/>
<path d="M439.986 560.694L428.851 554.266L422.423 565.4L418.711 563.257L425.14 552.123L414.005 545.694L416.148 541.983L427.283 548.411L433.711 537.277L437.423 539.42L430.994 550.554L442.129 556.983L439.986 560.694Z" fill="#333333"/>
<path d="M306.063 552.655L294.929 546.227L288.5 557.361L284.789 555.218L291.217 544.084L280.083 537.655L282.225 533.944L293.36 540.372L299.789 529.238L303.5 531.38L297.072 542.515L308.206 548.944L306.063 552.655Z" fill="#333333"/>
<path d="M358.025 582.655L346.89 576.227L340.462 587.361L336.75 585.218L343.179 574.084L332.044 567.655L334.187 563.944L345.321 570.372L351.75 559.238L355.462 561.38L349.033 572.515L360.168 578.944L358.025 582.655Z" fill="#333333"/>
<path d="M409.986 612.655L398.851 606.227L392.423 617.361L388.711 615.218L395.14 604.084L384.005 597.655L386.148 593.944L397.283 600.372L403.711 589.238L407.423 591.38L400.994 602.515L412.129 608.944L409.986 612.655Z" fill="#333333"/>
<path d="M210.179 358.732L199.044 352.304L192.615 363.438L188.904 361.296L195.332 350.161L184.198 343.732L186.341 340.021L197.475 346.449L203.904 335.315L207.615 337.458L201.187 348.592L212.321 355.021L210.179 358.732Z" fill="#333333"/>
<path d="M180.179 410.694L169.044 404.266L162.615 415.4L158.904 413.257L165.332 402.123L154.198 395.694L156.341 391.983L167.475 398.411L173.904 387.277L177.615 389.42L171.187 400.554L182.321 406.983L180.179 410.694Z" fill="#333333"/>
<path d="M232.14 440.694L221.005 434.266L214.577 445.4L210.865 443.257L217.294 432.123L206.159 425.694L208.302 421.983L219.437 428.411L225.865 417.277L229.577 419.42L223.148 430.554L234.283 436.983L232.14 440.694Z" fill="#333333"/>
<path d="M202.14 492.655L191.005 486.227L184.577 497.361L180.865 495.218L187.294 484.084L176.159 477.655L178.302 473.944L189.437 480.372L195.865 469.238L199.577 471.38L193.148 482.515L204.283 488.944L202.14 492.655Z" fill="#333333"/>
<path d="M254.102 522.655L242.967 516.227L236.539 527.361L232.827 525.218L239.256 514.084L228.121 507.655L230.264 503.944L241.399 510.372L247.827 499.238L251.539 501.38L245.11 512.515L256.245 518.944L254.102 522.655Z" fill="#333333"/>
<path d="M-74.1537 105.496L-80.5822 116.631L-69.4476 123.06L-71.5905 126.771L-82.7251 120.343L-89.1537 131.477L-92.8652 129.334L-86.4366 118.2L-97.5713 111.771L-95.4284 108.06L-84.2938 114.488L-77.8652 103.354L-74.1537 105.496Z" fill="#333333"/>
<path d="M-44.1537 53.5345L-50.5823 64.6691L-39.4477 71.0977L-41.5905 74.8092L-52.7251 68.3806L-59.1537 79.5152L-62.8652 77.3724L-56.4367 66.2378L-67.5713 59.8092L-65.4284 56.0977L-54.2938 62.5262L-47.8652 51.3916L-44.1537 53.5345Z" fill="#333333"/>
<path d="M-14.1537 1.57255L-20.5823 12.7072L-9.44766 19.1357L-11.5905 22.8473L-22.7251 16.4187L-29.1537 27.5533L-32.8652 25.4105L-26.4366 14.2758L-37.5713 7.84727L-35.4284 4.13573L-24.2938 10.5643L-17.8652 -0.570311L-14.1537 1.57255Z" fill="#333333"/>
<path d="M-22.1918 135.496L-28.6204 146.631L-17.4857 153.06L-19.6286 156.771L-30.7632 150.343L-37.1918 161.477L-40.9033 159.334L-34.4747 148.2L-45.6093 141.771L-43.4665 138.06L-32.3319 144.488L-25.9033 133.354L-22.1918 135.496Z" fill="#333333"/>
<path d="M7.8082 83.5345L1.37964 94.6691L12.5143 101.098L10.3714 104.809L-0.763215 98.3806L-7.1918 109.515L-10.9033 107.372L-4.47476 96.2378L-15.6094 89.8092L-13.4665 86.0977L-2.33191 92.5262L4.09668 81.3916L7.8082 83.5345Z" fill="#333333"/>
<path d="M37.8082 31.5726L31.3796 42.7072L42.5143 49.1357L40.3714 52.8473L29.2368 46.4187L22.8082 57.5533L19.0967 55.4105L25.5253 44.2758L14.3907 37.8473L16.5335 34.1357L27.6681 40.5643L34.0967 29.4297L37.8082 31.5726Z" fill="#333333"/>
<path d="M29.7691 165.496L23.3406 176.631L34.4752 183.06L32.3323 186.771L21.1977 180.343L14.7691 191.477L11.0576 189.334L17.4862 178.2L6.35156 171.771L8.49441 168.06L19.629 174.488L26.0576 163.354L29.7691 165.496Z" fill="#333333"/>
<path d="M59.7692 113.534L53.3406 124.669L64.4752 131.098L62.3323 134.809L51.1977 128.381L44.7692 139.515L41.0576 137.372L47.4862 126.238L36.3516 119.809L38.4944 116.098L49.6291 122.526L56.0576 111.392L59.7692 113.534Z" fill="#333333"/>
<path d="M89.7692 61.5726L83.3406 72.7072L94.4752 79.1358L92.3323 82.8473L81.1977 76.4187L74.7692 87.5533L71.0576 85.4105L77.4862 74.2759L66.3516 67.8473L68.4944 64.1358L79.629 70.5643L86.0576 59.4297L89.7692 61.5726Z" fill="#333333"/>
<path d="M-164.154 261.38L-170.582 272.515L-159.448 278.943L-161.591 282.655L-172.725 276.226L-179.154 287.361L-182.865 285.218L-176.437 274.083L-187.571 267.655L-185.428 263.943L-174.294 270.372L-167.865 259.237L-164.154 261.38Z" fill="#333333"/>
<path d="M-134.154 209.419L-140.582 220.554L-129.448 226.982L-131.591 230.694L-142.725 224.265L-149.154 235.4L-152.865 233.257L-146.437 222.123L-157.571 215.694L-155.428 211.982L-144.294 218.411L-137.865 207.276L-134.154 209.419Z" fill="#333333"/>
<path d="M-104.154 157.457L-110.582 168.592L-99.4477 175.021L-101.591 178.732L-112.725 172.303L-119.154 183.438L-122.865 181.295L-116.437 170.161L-127.571 163.732L-125.428 160.021L-114.294 166.449L-107.865 155.314L-104.154 157.457Z" fill="#333333"/>
<path d="M-112.192 291.38L-118.62 302.515L-107.486 308.943L-109.629 312.655L-120.763 306.226L-127.192 317.361L-130.903 315.218L-124.475 304.083L-135.609 297.655L-133.467 293.943L-122.332 300.372L-115.903 289.237L-112.192 291.38Z" fill="#333333"/>
<path d="M-82.1918 239.419L-88.6204 250.554L-77.4857 256.982L-79.6286 260.694L-90.7632 254.265L-97.1918 265.4L-100.903 263.257L-94.4748 252.123L-105.609 245.694L-103.467 241.982L-92.3319 248.411L-85.9034 237.276L-82.1918 239.419Z" fill="#333333"/>
<path d="M-52.1918 187.457L-58.6204 198.592L-47.4857 205.021L-49.6286 208.732L-60.7632 202.303L-67.1918 213.438L-70.9034 211.295L-64.4748 200.161L-75.6094 193.732L-73.4665 190.021L-62.3319 196.449L-55.9034 185.315L-52.1918 187.457Z" fill="#333333"/>
<path d="M-60.2309 321.38L-66.6594 332.515L-55.5248 338.943L-57.6677 342.655L-68.8023 336.226L-75.2309 347.361L-78.9424 345.218L-72.5138 334.083L-83.6484 327.655L-81.5056 323.943L-70.371 330.372L-63.9424 319.237L-60.2309 321.38Z" fill="#333333"/>
<path d="M-30.2309 269.419L-36.6595 280.554L-25.5248 286.982L-27.6677 290.694L-38.8023 284.265L-45.2309 295.4L-48.9424 293.257L-42.5138 282.123L-53.6484 275.694L-51.5056 271.982L-40.371 278.411L-33.9424 267.276L-30.2309 269.419Z" fill="#333333"/>
<path d="M-0.230866 217.457L-6.65942 228.592L4.47519 235.021L2.33234 238.732L-8.80228 232.303L-15.2309 243.438L-18.9424 241.295L-12.5138 230.161L-23.6484 223.732L-21.5056 220.021L-10.371 226.449L-3.94238 215.314L-0.230866 217.457Z" fill="#333333"/>
<path d="M111.731 143.534L105.302 154.669L116.437 161.098L114.294 164.809L103.16 158.381L96.7311 169.515L93.0195 167.372L99.4481 156.238L88.3135 149.809L90.4564 146.098L101.591 152.526L108.02 141.392L111.731 143.534Z" fill="#333333"/>
<path d="M141.731 91.5726L135.302 102.707L146.437 109.136L144.294 112.847L133.16 106.419L126.731 117.553L123.02 115.41L129.448 104.276L118.313 97.8473L120.456 94.1358L131.591 100.564L138.02 89.4297L141.731 91.5726Z" fill="#333333"/>
<path d="M163.692 173.534L157.263 184.669L168.398 191.098L166.255 194.809L155.121 188.381L148.692 199.515L144.98 197.372L151.409 186.238L140.274 179.809L142.417 176.098L153.552 182.526L159.98 171.392L163.692 173.534Z" fill="#333333"/>
<path d="M193.693 121.573L187.264 132.707L198.398 139.136L196.256 142.847L185.121 136.419L178.693 147.553L174.981 145.41L181.41 134.276L170.275 127.847L172.418 124.136L183.552 130.564L189.981 119.43L193.693 121.573Z" fill="#333333"/>
<path d="M245.654 151.573L239.225 162.707L250.36 169.136L248.217 172.847L237.082 166.419L230.654 177.553L226.942 175.41L233.371 164.276L222.236 157.847L224.379 154.136L235.514 160.564L241.942 149.43L245.654 151.573Z" fill="#333333"/>
<path d="M-8.26895 351.38L-14.6975 362.515L-3.5629 368.943L-5.70578 372.655L-16.8404 366.226L-23.269 377.361L-26.9805 375.218L-20.5519 364.083L-31.6865 357.655L-29.5437 353.943L-18.4091 360.372L-11.9805 349.237L-8.26895 351.38Z" fill="#333333"/>
<path d="M21.731 299.419L15.3025 310.554L26.4371 316.982L24.2942 320.694L13.1596 314.265L6.73105 325.4L3.01953 323.257L9.44809 312.123L-1.68652 305.694L0.456328 301.982L11.5909 308.411L18.0195 297.276L21.731 299.419Z" fill="#333333"/>
<path d="M43.692 381.38L37.2634 392.515L48.398 398.943L46.2552 402.655L35.1206 396.226L28.692 407.361L24.9805 405.218L31.409 394.083L20.2744 387.655L22.4173 383.943L33.5519 390.372L39.9805 379.237L43.692 381.38Z" fill="#333333"/>
<path d="M73.692 329.419L67.2634 340.554L78.398 346.982L76.2552 350.694L65.1206 344.265L58.692 355.4L54.9804 353.257L61.409 342.123L50.2744 335.694L52.4173 331.982L63.5519 338.411L69.9804 327.276L73.692 329.419Z" fill="#333333"/>
<path d="M103.692 277.457L97.2634 288.592L108.398 295.021L106.255 298.732L95.1205 292.303L88.692 303.438L84.9804 301.295L91.409 290.161L80.2744 283.732L82.4173 280.021L93.5519 286.449L99.9804 275.314L103.692 277.457Z" fill="#333333"/>
<path d="M95.6539 411.38L89.2253 422.515L100.36 428.943L98.2171 432.655L87.0825 426.226L80.6539 437.361L76.9424 435.218L83.3709 424.083L72.2363 417.655L74.3792 413.943L85.5138 420.372L91.9424 409.237L95.6539 411.38Z" fill="#333333"/>
<path d="M125.654 359.419L119.225 370.554L130.36 376.982L128.217 380.694L117.082 374.265L110.654 385.4L106.942 383.257L113.371 372.123L102.236 365.694L104.379 361.982L115.514 368.411L121.942 357.276L125.654 359.419Z" fill="#333333"/>
<path d="M155.654 307.457L149.225 318.592L160.36 325.021L158.217 328.732L147.082 322.303L140.654 333.438L136.942 331.295L143.371 320.161L132.236 313.732L134.379 310.021L145.514 316.449L151.942 305.314L155.654 307.457Z" fill="#333333"/>
</svg>
