<?xml version="1.0" encoding="utf-8"?><svg viewBox="0 0 533 840" xmlns="http://www.w3.org/2000/svg" xmlns:xlink="http://www.w3.org/1999/xlink"><style>:root>svg{display:none}:root>svg:target{display:block}</style><svg viewBox="0 0 24 24" id="account" xmlns="http://www.w3.org/2000/svg"><path d="M0 0h24v24H0z" fill="none"/><path d="M12 2C6.48 2 2 6.48 2 12s4.48 10 10 10 10-4.48 10-10S17.52 2 12 2zm0 3c1.66 0 3 1.34 3 3s-1.34 3-3 3-3-1.34-3-3 1.34-3 3-3zm0 14.2a7.2 7.2 0 01-6-3.22c.03-1.99 4-3.08 6-3.08 1.99 0 5.97 1.09 6 3.08a7.2 7.2 0 01-6 3.22z"/></svg><svg viewBox="0 0 24 24" id="add_black_24dp" xmlns="http://www.w3.org/2000/svg"><path d="M0 0h24v24H0V0z" fill="none"/><path d="M19 13h-6v6h-2v-6H5v-2h6V5h2v6h6v2z"/></svg><svg fill="#f0f0f3" viewBox="0 0 24 24" id="arrow-button" xmlns="http://www.w3.org/2000/svg"><path d="M9 19l1.41-1.41L5.83 13H22v-2H5.83l4.59-4.59L9 5l-7 7 7 7z"/></svg><svg fill="#333" viewBox="0 0 24 24" id="arrow-button-dark" xmlns="http://www.w3.org/2000/svg"><path d="M9 19l1.41-1.41L5.83 13H22v-2H5.83l4.59-4.59L9 5l-7 7 7 7z"/></svg><svg viewBox="0 0 24 24" id="arrow-title" xmlns="http://www.w3.org/2000/svg"><path d="M0 0h24v24H0z" fill="none"/><path d="M20 11H7.83l5.59-5.59L12 4l-8 8 8 8 1.41-1.41L7.83 13H20v-2z"/></svg><svg viewBox="0 0 24 24" id="cart" xmlns="http://www.w3.org/2000/svg"><path d="M0 0h24v24H0z" fill="none"/><path d="M7 18c-1.1 0-1.99.9-1.99 2S5.9 22 7 22s2-.9 2-2-.9-2-2-2zM1 2v2h2l3.6 7.59-1.35 2.45c-.16.28-.25.61-.25.96 0 1.1.9 2 2 2h12v-2H7.42c-.14 0-.25-.11-.25-.25l.03-.12.9-1.63h7.45c.75 0 1.41-.41 1.75-1.03l3.58-6.49A1.003 1.003 0 0020 4H5.21l-.94-2H1zm16 16c-1.1 0-1.99.9-1.99 2s.89 2 1.99 2 2-.9 2-2-.9-2-2-2z"/></svg><svg viewBox="0 0 24 24" fill="#333" id="checked" xmlns="http://www.w3.org/2000/svg"><path d="M0 0h24v24H0V0z" fill="none"/><path d="M9 16.2L4.8 12l-1.4 1.4L9 19 21 7l-1.4-1.4L9 16.2z"/></svg><svg fill="none" viewBox="0 0 24 24" id="close" xmlns="http://www.w3.org/2000/svg"><path d="M24 2.417L21.583 0 12 9.583 2.417 0 0 2.417 9.583 12 0 21.583 2.417 24 12 14.417 21.583 24 24 21.583 14.417 12 24 2.417z" fill="#1F1F1F"/></svg><svg fill="none" viewBox="0 0 533 840" id="cross" xmlns="http://www.w3.org/2000/svg"><path d="M276.063 604.617l-11.134-6.428-6.429 11.134-3.711-2.143 6.428-11.134-11.134-6.429 2.142-3.711 11.135 6.428 6.429-11.134 3.711 2.142-6.428 11.135 11.134 6.429-2.143 3.711zM328.025 634.617l-11.135-6.428-6.428 11.134-3.712-2.143 6.429-11.134-11.135-6.429 2.143-3.711 11.134 6.428 6.429-11.134 3.712 2.142-6.429 11.135 11.135 6.429-2.143 3.711zM379.986 664.617l-11.135-6.428-6.428 11.134-3.712-2.143 6.429-11.134-11.135-6.429 2.143-3.711 11.135 6.428 6.428-11.134 3.712 2.142-6.429 11.135 11.135 6.429-2.143 3.711zM349.986 716.578l-11.135-6.428-6.428 11.134-3.712-2.143 6.429-11.134-11.135-6.429 2.143-3.711 11.135 6.428 6.428-11.134 3.712 2.142-6.429 11.135 11.135 6.429-2.143 3.711zM216.063 708.54l-11.134-6.429-6.429 11.135-3.711-2.143 6.428-11.134-11.135-6.429 2.143-3.712 11.135 6.429 6.429-11.135 3.711 2.143-6.429 11.135 11.135 6.428-2.143 3.712zM268.025 738.54l-11.135-6.429-6.429 11.135-3.711-2.143 6.429-11.134-11.135-6.429 2.143-3.712 11.134 6.429 6.429-11.135 3.711 2.143-6.428 11.135 11.135 6.428-2.143 3.712zM319.986 768.54l-11.135-6.429-6.428 11.135-3.712-2.143 6.429-11.134-11.135-6.429 2.143-3.712 11.135 6.429 6.428-11.135 3.712 2.143-6.429 11.135 11.135 6.428-2.143 3.712zM224.102 574.617l-11.135-6.428-6.428 11.134-3.712-2.143 6.429-11.134-11.135-6.429 2.143-3.711 11.135 6.428 6.428-11.134 3.712 2.142-6.429 11.135 11.135 6.429-2.143 3.711zM90.179 566.578l-11.135-6.429-6.428 11.135-3.712-2.143 6.429-11.134-11.135-6.429 2.143-3.711 11.135 6.428 6.428-11.135 3.712 2.143-6.429 11.135 11.135 6.429-2.143 3.711zM142.14 596.578l-11.135-6.429-6.428 11.135-3.712-2.143 6.429-11.134-11.135-6.429 2.143-3.711 11.135 6.428 6.428-11.135 3.712 2.143-6.429 11.135 11.135 6.429-2.143 3.711zM194.102 626.578l-11.135-6.429-6.428 11.135-3.712-2.143 6.429-11.134-11.135-6.429 2.143-3.711 11.135 6.428 6.428-11.135 3.712 2.143-6.429 11.135 11.135 6.429-2.143 3.711zM60.179 618.54l-11.135-6.429-6.428 11.135-3.712-2.143 6.429-11.134-11.135-6.429 2.143-3.712 11.135 6.429 6.428-11.135 3.712 2.143-6.429 11.135 11.135 6.428-2.143 3.712zM112.14 648.54l-11.135-6.429-6.428 11.135-3.712-2.143 6.429-11.134-11.135-6.429 2.143-3.712 11.135 6.429 6.428-11.135 3.712 2.143-6.429 11.135 11.135 6.428-2.143 3.712zM164.102 678.54l-11.135-6.429-6.428 11.135-3.712-2.143 6.429-11.134-11.135-6.429 2.143-3.712 11.135 6.429 6.428-11.135 3.712 2.143-6.429 11.135 11.135 6.428-2.143 3.712zM186.063 760.502l-11.134-6.429-6.429 11.135-3.711-2.143 6.428-11.135-11.134-6.428 2.142-3.712 11.135 6.429 6.429-11.135 3.711 2.143-6.428 11.135 11.134 6.428-2.143 3.712zM238.025 790.502l-11.135-6.429-6.429 11.135-3.711-2.143 6.429-11.135-11.135-6.428 2.143-3.712 11.134 6.429 6.429-11.135 3.711 2.143-6.428 11.135 11.135 6.428-2.143 3.712zM289.986 820.502l-11.135-6.429-6.428 11.135-3.712-2.143 6.429-11.135-11.135-6.428 2.143-3.712 11.135 6.429 6.428-11.135 3.712 2.143-6.429 11.135 11.135 6.428-2.143 3.712zM156.063 812.463l-11.135-6.429-6.428 11.135-3.712-2.143 6.429-11.135-11.135-6.428 2.143-3.712 11.134 6.429 6.429-11.135 3.712 2.143-6.429 11.135 11.135 6.428-2.143 3.712zM208.025 842.463l-11.135-6.429-6.429 11.135-3.711-2.143 6.429-11.135-11.135-6.428 2.143-3.712 11.134 6.429 6.429-11.135 3.711 2.143-6.428 11.135 11.135 6.428-2.143 3.712zM259.986 872.463l-11.135-6.429-6.428 11.135-3.712-2.143 6.429-11.135-11.135-6.428 2.143-3.712 11.135 6.429 6.428-11.135 3.712 2.143-6.429 11.135 11.135 6.428-2.143 3.712zM126.063 864.425l-11.135-6.429-6.428 11.135-3.712-2.143 6.429-11.135-11.135-6.428 2.143-3.712 11.134 6.429 6.429-11.135 3.712 2.143-6.429 11.135 11.135 6.428-2.143 3.712zM178.025 894.425l-11.135-6.429-6.428 11.135-3.712-2.143 6.429-11.135-11.135-6.428 2.143-3.712 11.134 6.429 6.429-11.135 3.712 2.143-6.429 11.135 11.135 6.428-2.143 3.712zM229.986 924.425l-11.135-6.429-6.428 11.135-3.712-2.143 6.429-11.135-11.135-6.428 2.143-3.712 11.135 6.429 6.428-11.135 3.712 2.143-6.429 11.135 11.135 6.428-2.143 3.712zM134.102 730.501l-11.135-6.429-6.428 11.135-3.712-2.143 6.429-11.134-11.135-6.429 2.143-3.712 11.135 6.429 6.428-11.135 3.712 2.143-6.429 11.135 11.135 6.428-2.143 3.712zM.179 722.463l-11.135-6.429-6.428 11.135-3.712-2.143 6.429-11.135-11.135-6.428 2.143-3.712 11.135 6.429 6.428-11.135 3.712 2.143-6.429 11.135 11.135 6.428-2.143 3.712zM52.14 752.463l-11.135-6.429-6.428 11.135-3.712-2.143 6.429-11.135-11.135-6.428 2.143-3.712 11.135 6.429 6.428-11.135 3.712 2.143-6.429 11.135 11.135 6.428-2.143 3.712zM104.102 782.463l-11.135-6.429-6.428 11.135-3.712-2.143 6.429-11.135-11.135-6.428 2.143-3.712 11.135 6.429 6.428-11.135 3.712 2.143-6.429 11.135 11.135 6.428-2.143 3.712zM-29.821 774.425l-11.135-6.429-6.428 11.135-3.712-2.143 6.429-11.135-11.135-6.428 2.143-3.712 11.135 6.429 6.428-11.135 3.712 2.143-6.429 11.135 11.135 6.428-2.143 3.712zM22.14 804.425l-11.135-6.429-6.428 11.135-3.712-2.143 6.429-11.135-11.135-6.428 2.143-3.712 11.135 6.429 6.428-11.135 3.712 2.143-6.429 11.135 11.135 6.428-2.143 3.712zM74.102 834.425l-11.135-6.429-6.428 11.135-3.712-2.143 6.429-11.135-11.135-6.428 2.143-3.712 11.135 6.429 6.428-11.135 3.712 2.143-6.429 11.135 11.135 6.428-2.143 3.712zM-254.154 417.265l-6.428 11.135 11.134 6.428-2.143 3.712-11.134-6.429-6.429 11.135-3.711-2.143 6.428-11.135-11.134-6.428 2.143-3.712 11.134 6.429 6.429-11.135 3.711 2.143zM-224.154 365.304l-6.428 11.135 11.134 6.428-2.143 3.712-11.134-6.429-6.429 11.135-3.711-2.143 6.428-11.135-11.134-6.428 2.143-3.712 11.134 6.429 6.429-11.135 3.711 2.143zM-194.154 313.342l-6.428 11.135 11.134 6.428-2.143 3.712-11.134-6.429-6.429 11.135-3.711-2.143 6.428-11.135-11.134-6.428 2.143-3.712 11.134 6.429 6.429-11.135 3.711 2.143zM-202.192 447.265l-6.428 11.135 11.134 6.428-2.143 3.712-11.134-6.429-6.429 11.135-3.711-2.143 6.428-11.135-11.134-6.428 2.142-3.712 11.135 6.429 6.429-11.135 3.711 2.143zM-172.192 395.304l-6.428 11.135 11.134 6.428-2.143 3.712-11.134-6.429-6.429 11.135-3.711-2.143 6.428-11.135-11.134-6.428 2.142-3.712 11.135 6.429 6.429-11.135 3.711 2.143zM-142.192 343.342l-6.428 11.135 11.134 6.428-2.143 3.712-11.134-6.429-6.429 11.135-3.711-2.143 6.428-11.135-11.134-6.428 2.142-3.712 11.135 6.429 6.429-11.135 3.711 2.143zM-150.231 477.265l-6.428 11.135 11.134 6.428-2.143 3.712-11.134-6.429-6.429 11.135-3.711-2.143 6.428-11.135-11.134-6.428 2.142-3.712 11.135 6.429 6.429-11.135 3.711 2.143zM-120.231 425.304l-6.428 11.135 11.134 6.428-2.143 3.712-11.134-6.429-6.429 11.135-3.711-2.143 6.428-11.135-11.134-6.428 2.142-3.712 11.135 6.429 6.429-11.135 3.711 2.143zM-90.23 373.342l-6.43 11.135 11.135 6.428-2.143 3.712-11.134-6.429-6.429 11.135-3.711-2.143 6.428-11.135-11.134-6.428 2.142-3.712 11.135 6.429 6.429-11.135 3.711 2.143zM-344.154 573.15l-6.428 11.134 11.134 6.429-2.143 3.711-11.134-6.428-6.429 11.134-3.711-2.142 6.428-11.135-11.134-6.429 2.143-3.711 11.134 6.428 6.429-11.134 3.711 2.143zM-314.154 521.188l-6.428 11.134 11.134 6.429-2.143 3.712-11.134-6.429-6.429 11.135-3.711-2.143 6.428-11.135-11.134-6.428 2.143-3.712 11.134 6.429 6.429-11.135 3.711 2.143zM-284.154 469.227l-6.428 11.134 11.134 6.429-2.143 3.712-11.134-6.429-6.429 11.135-3.711-2.143 6.428-11.135-11.134-6.428 2.143-3.712 11.134 6.429 6.429-11.135 3.711 2.143zM-292.192 603.15l-6.428 11.134 11.134 6.429-2.143 3.711-11.134-6.428-6.429 11.134-3.711-2.142 6.428-11.135-11.134-6.429 2.142-3.711 11.135 6.428 6.429-11.134 3.711 2.143zM-262.192 551.188l-6.428 11.134 11.134 6.429-2.143 3.712-11.134-6.429-6.429 11.135-3.711-2.143 6.428-11.135-11.134-6.428 2.142-3.712 11.135 6.429 6.429-11.135 3.711 2.143zM-232.192 499.227l-6.428 11.134 11.134 6.429-2.143 3.712-11.134-6.429-6.429 11.135-3.711-2.143 6.428-11.135-11.134-6.428 2.142-3.712 11.135 6.429 6.429-11.135 3.711 2.143zM-240.231 633.15l-6.428 11.134 11.134 6.429-2.143 3.711-11.134-6.428-6.429 11.134-3.711-2.142 6.428-11.135-11.134-6.429 2.142-3.711 11.135 6.428 6.429-11.134 3.711 2.143zM-210.231 581.188l-6.428 11.134 11.134 6.429-2.143 3.712-11.134-6.429-6.429 11.135-3.711-2.143 6.428-11.135-11.134-6.428 2.142-3.712 11.135 6.429 6.429-11.135 3.711 2.143zM-180.231 529.227l-6.428 11.135 11.134 6.428-2.143 3.712-11.134-6.429-6.429 11.135-3.711-2.143 6.428-11.135-11.134-6.428 2.142-3.712 11.135 6.429 6.429-11.135 3.711 2.143zM-98.269 507.265l-6.429 11.135 11.135 6.428-2.143 3.712-11.134-6.429-6.429 11.135-3.711-2.143 6.428-11.135-11.135-6.428 2.143-3.712 11.135 6.429 6.428-11.135 3.712 2.143zM-68.269 455.304l-6.428 11.135 11.134 6.428-2.143 3.712-11.134-6.429-6.429 11.135-3.712-2.143 6.43-11.135-11.135-6.428 2.142-3.712 11.135 6.429 6.428-11.135 3.712 2.143zM-38.269 403.342l-6.428 11.135 11.134 6.428-2.143 3.712-11.134-6.429-6.429 11.135-3.712-2.143 6.43-11.135-11.136-6.428 2.143-3.712 11.135 6.429 6.428-11.135 3.712 2.143zM-46.308 537.265l-6.429 11.135 11.135 6.428-2.143 3.712-11.134-6.429-6.429 11.135-3.711-2.143 6.428-11.135-11.135-6.428 2.143-3.712 11.135 6.429 6.428-11.135 3.712 2.143zM-16.308 485.304l-6.429 11.135 11.135 6.428-2.143 3.712-11.134-6.429-6.429 11.135-3.712-2.143 6.429-11.135-11.135-6.428 2.143-3.712 11.135 6.429 6.428-11.135 3.712 2.143zM13.692 433.342l-6.429 11.135 11.135 6.428-2.143 3.712-11.134-6.429-6.429 11.135-3.712-2.143 6.429-11.135-11.135-6.428 2.143-3.712 11.135 6.429 6.428-11.135 3.712 2.143zM5.654 567.265L-.775 578.4l11.135 6.428-2.143 3.712-11.135-6.429-6.428 11.135-3.712-2.143 6.429-11.135-11.135-6.428 2.143-3.712 11.135 6.429 6.428-11.135 3.712 2.143zM35.654 515.304l-6.429 11.135 11.135 6.428-2.143 3.712-11.134-6.429-6.43 11.135-3.71-2.143 6.428-11.135-11.135-6.428 2.143-3.712 11.135 6.429 6.428-11.135 3.712 2.143zM65.654 463.342l-6.429 11.135 11.135 6.428-2.143 3.712-11.134-6.429-6.43 11.135-3.71-2.143 6.428-11.135-11.135-6.428 2.143-3.712 11.135 6.429 6.428-11.135 3.712 2.143zM-188.269 663.15l-6.429 11.134 11.135 6.429-2.143 3.711-11.134-6.428-6.429 11.134-3.711-2.142 6.428-11.135-11.135-6.429 2.143-3.711 11.135 6.428 6.429-11.134 3.711 2.143zM-158.269 611.188l-6.429 11.134 11.135 6.429-2.143 3.712-11.134-6.429-6.429 11.135-3.711-2.143 6.428-11.135-11.135-6.428 2.143-3.712 11.135 6.429 6.429-11.135 3.711 2.143zM-128.269 559.227l-6.429 11.135 11.135 6.428-2.143 3.712-11.134-6.429-6.429 11.135-3.711-2.143 6.428-11.135-11.135-6.428 2.143-3.712 11.135 6.429 6.429-11.135 3.711 2.143zM-136.308 693.15l-6.429 11.134 11.135 6.429-2.143 3.711-11.134-6.428-6.429 11.134-3.712-2.142 6.429-11.135-11.135-6.429 2.143-3.711 11.135 6.428 6.428-11.134 3.712 2.143zM-106.308 641.188l-6.429 11.134 11.135 6.429-2.143 3.712-11.134-6.429-6.429 11.135-3.712-2.143 6.429-11.135-11.135-6.428 2.143-3.712 11.135 6.429 6.428-11.135 3.712 2.143zM-76.308 589.227l-6.429 11.135 11.135 6.428-2.143 3.712-11.134-6.429-6.429 11.135-3.711-2.143 6.428-11.135-11.135-6.428 2.143-3.712 11.135 6.429 6.428-11.135 3.712 2.143zM-84.346 723.15l-6.429 11.134 11.135 6.429-2.143 3.711-11.135-6.428-6.428 11.134-3.712-2.142 6.429-11.135-11.135-6.429 2.143-3.711 11.135 6.428 6.428-11.134 3.712 2.143zM-54.346 671.188l-6.429 11.134 11.135 6.429-2.143 3.712-11.134-6.429-6.43 11.135-3.71-2.143 6.428-11.135-11.135-6.428 2.143-3.712 11.135 6.429 6.428-11.135 3.712 2.143zM-24.346 619.227l-6.429 11.134 11.135 6.429-2.143 3.712-11.134-6.429-6.43 11.135-3.71-2.143 6.428-11.135-11.135-6.428 2.143-3.712 11.135 6.429 6.428-11.135 3.712 2.143zM456.063 292.848l-11.134-6.429-6.429 11.135-3.711-2.143 6.428-11.135-11.134-6.428 2.142-3.712 11.135 6.429 6.429-11.135 3.711 2.143-6.428 11.134 11.134 6.429-2.143 3.712zM508.025 322.848l-11.135-6.429-6.428 11.135-3.712-2.143 6.429-11.135-11.135-6.428 2.143-3.712 11.134 6.429 6.429-11.135 3.712 2.143-6.429 11.134 11.135 6.429-2.143 3.712zM426.063 344.809l-11.134-6.428-6.429 11.135-3.711-2.143 6.428-11.135-11.134-6.429 2.142-3.711 11.135 6.428 6.429-11.134 3.711 2.143-6.428 11.134 11.134 6.429-2.143 3.711zM529.986 404.809l-11.135-6.428-6.428 11.135-3.712-2.143 6.429-11.135-11.135-6.429 2.143-3.711 11.135 6.428 6.428-11.134 3.712 2.143-6.429 11.134 11.135 6.429-2.143 3.711zM396.063 396.77l-11.134-6.428-6.429 11.134-3.711-2.142 6.428-11.135-11.134-6.429 2.142-3.711 11.135 6.428 6.429-11.134 3.711 2.143-6.428 11.134 11.134 6.429-2.143 3.711zM448.025 426.77l-11.135-6.428-6.428 11.134-3.712-2.142 6.429-11.135-11.135-6.429 2.143-3.711 11.134 6.428 6.429-11.134 3.712 2.143-6.429 11.134 11.135 6.429-2.143 3.711zM499.986 456.77l-11.134-6.428-6.429 11.134-3.712-2.142 6.429-11.135-11.135-6.429 2.143-3.711 11.135 6.428 6.428-11.134 3.712 2.143-6.429 11.134 11.135 6.429-2.143 3.711zM300.179 202.848l-11.135-6.429-6.429 11.135-3.711-2.143 6.428-11.135-11.134-6.428 2.143-3.712 11.134 6.429 6.429-11.135 3.711 2.143-6.428 11.134 11.134 6.429-2.142 3.712zM352.14 232.848l-11.135-6.429-6.428 11.135-3.712-2.143 6.429-11.135-11.135-6.428 2.143-3.712 11.135 6.429 6.428-11.135 3.712 2.143-6.429 11.134 11.135 6.429-2.143 3.712zM404.102 262.848l-11.135-6.429-6.428 11.135-3.712-2.143 6.429-11.135-11.135-6.428 2.143-3.712 11.135 6.429 6.428-11.135 3.712 2.143-6.429 11.134 11.135 6.429-2.143 3.712zM270.179 254.809l-11.135-6.428-6.429 11.135-3.711-2.143 6.428-11.135-11.134-6.429 2.143-3.711 11.134 6.429 6.429-11.135 3.711 2.143-6.428 11.134 11.134 6.429-2.142 3.711zM374.102 314.81l-11.135-6.429-6.428 11.135-3.712-2.143 6.429-11.135-11.135-6.428 2.143-3.712 11.135 6.429 6.428-11.135 3.712 2.143-6.429 11.134 11.135 6.429-2.143 3.712zM240.179 306.77l-11.135-6.428-6.429 11.134-3.711-2.142 6.428-11.135-11.134-6.429 2.143-3.711 11.134 6.428 6.429-11.134 3.711 2.143-6.428 11.134 11.134 6.429-2.142 3.711zM292.14 336.77l-11.135-6.428-6.428 11.134-3.712-2.142 6.429-11.135-11.135-6.429 2.143-3.711 11.135 6.428 6.428-11.134 3.712 2.143-6.429 11.134 11.135 6.429-2.143 3.711zM344.102 366.77l-11.135-6.428-6.428 11.134-3.712-2.142 6.429-11.135-11.135-6.429 2.143-3.711 11.135 6.428 6.428-11.134 3.712 2.143-6.429 11.134 11.135 6.429-2.143 3.711zM366.063 448.732l-11.134-6.428-6.429 11.134-3.711-2.142 6.428-11.135-11.134-6.429 2.142-3.711 11.135 6.428 6.429-11.134 3.711 2.143-6.428 11.134 11.134 6.429-2.143 3.711zM418.025 478.732l-11.135-6.428-6.429 11.134-3.711-2.142 6.429-11.135-11.135-6.429 2.143-3.711 11.134 6.428 6.429-11.134 3.711 2.143-6.428 11.134 11.135 6.429-2.143 3.711zM469.986 508.732l-11.135-6.428-6.428 11.134-3.712-2.142 6.429-11.135-11.135-6.429 2.143-3.711 11.135 6.428 6.428-11.134 3.712 2.143-6.429 11.134 11.135 6.429-2.143 3.711zM336.063 500.694l-11.134-6.428L318.5 505.4l-3.711-2.143 6.428-11.134-11.134-6.429 2.142-3.711 11.135 6.428 6.429-11.134 3.711 2.143-6.428 11.134 11.134 6.429-2.143 3.711zM388.025 530.694l-11.135-6.428-6.429 11.134-3.711-2.143 6.429-11.134-11.135-6.429 2.143-3.711 11.134 6.428 6.429-11.134 3.711 2.143-6.428 11.134 11.135 6.429-2.143 3.711zM439.986 560.694l-11.135-6.428-6.428 11.134-3.712-2.143 6.429-11.134-11.135-6.429 2.143-3.711 11.135 6.428 6.428-11.134 3.712 2.143-6.429 11.134 11.135 6.429-2.143 3.711zM306.063 552.655l-11.134-6.428-6.429 11.134-3.711-2.143 6.428-11.134-11.134-6.429 2.142-3.711 11.135 6.428 6.429-11.134 3.711 2.142-6.428 11.135 11.134 6.429-2.143 3.711zM358.025 582.655l-11.135-6.428-6.428 11.134-3.712-2.143 6.429-11.134-11.135-6.429 2.143-3.711 11.134 6.428 6.429-11.134 3.712 2.142-6.429 11.135 11.135 6.429-2.143 3.711zM409.986 612.655l-11.135-6.428-6.428 11.134-3.712-2.143 6.429-11.134-11.135-6.429 2.143-3.711 11.135 6.428 6.428-11.134 3.712 2.142-6.429 11.135 11.135 6.429-2.143 3.711zM210.179 358.732l-11.135-6.428-6.429 11.134-3.711-2.142 6.428-11.135-11.134-6.429 2.143-3.711 11.134 6.428 6.429-11.134 3.711 2.143-6.428 11.134 11.134 6.429-2.142 3.711zM180.179 410.694l-11.135-6.428-6.429 11.134-3.711-2.143 6.428-11.134-11.134-6.429 2.143-3.711 11.134 6.428 6.429-11.134 3.711 2.143-6.428 11.134 11.134 6.429-2.142 3.711zM232.14 440.694l-11.135-6.428-6.428 11.134-3.712-2.143 6.429-11.134-11.135-6.429 2.143-3.711 11.135 6.428 6.428-11.134 3.712 2.143-6.429 11.134 11.135 6.429-2.143 3.711zM202.14 492.655l-11.135-6.428-6.428 11.134-3.712-2.143 6.429-11.134-11.135-6.429 2.143-3.711 11.135 6.428 6.428-11.134 3.712 2.142-6.429 11.135 11.135 6.429-2.143 3.711zM254.102 522.655l-11.135-6.428-6.428 11.134-3.712-2.143 6.429-11.134-11.135-6.429 2.143-3.711 11.135 6.428 6.428-11.134 3.712 2.142-6.429 11.135 11.135 6.429-2.143 3.711zM-74.154 105.496l-6.428 11.135 11.134 6.429-2.143 3.711-11.134-6.428-6.429 11.134-3.711-2.143 6.428-11.134-11.134-6.429 2.143-3.711 11.134 6.428 6.429-11.134 3.711 2.142zM-44.154 53.535l-6.428 11.134 11.134 6.429-2.142 3.711-11.135-6.428-6.429 11.134-3.711-2.143 6.428-11.134-11.134-6.429 2.143-3.711 11.134 6.428 6.429-11.134 3.711 2.142zM-14.154 1.573l-6.428 11.134 11.134 6.429-2.143 3.711-11.134-6.428-6.429 11.134-3.711-2.143 6.428-11.134-11.134-6.429 2.143-3.711 11.134 6.428L-17.865-.57l3.711 2.143zM-22.192 135.496l-6.428 11.135 11.134 6.429-2.143 3.711-11.134-6.428-6.429 11.134-3.711-2.143 6.428-11.134-11.134-6.429 2.142-3.711 11.135 6.428 6.429-11.134 3.711 2.142zM7.808 83.534L1.38 94.67l11.134 6.429-2.143 3.711-11.134-6.428-6.429 11.134-3.711-2.143 6.428-11.134-11.134-6.429 2.143-3.711 11.134 6.428 6.429-11.134 3.711 2.142zM37.808 31.573L31.38 42.707l11.134 6.429-2.143 3.711-11.134-6.428-6.429 11.134-3.711-2.142 6.428-11.135-11.134-6.429 2.143-3.711 11.134 6.428 6.429-11.134 3.711 2.143zM29.77 165.496l-6.43 11.135 11.135 6.429-2.143 3.711-11.134-6.428-6.429 11.134-3.711-2.143 6.428-11.134-11.134-6.429 2.142-3.711 11.135 6.428 6.429-11.134 3.711 2.142zM59.77 113.534l-6.43 11.135 11.135 6.429-2.143 3.711-11.134-6.428-6.429 11.134-3.711-2.143 6.428-11.134-11.134-6.429 2.142-3.711 11.135 6.428 6.429-11.134 3.711 2.142zM89.77 61.573l-6.43 11.134 11.135 6.429-2.143 3.711-11.134-6.428-6.429 11.134-3.711-2.142 6.428-11.135-11.134-6.429 2.142-3.711 11.135 6.428 6.429-11.134 3.711 2.143zM-164.154 261.38l-6.428 11.135 11.134 6.428-2.143 3.712-11.134-6.429-6.429 11.135-3.711-2.143 6.428-11.135-11.134-6.428 2.143-3.712 11.134 6.429 6.429-11.135 3.711 2.143zM-134.154 209.419l-6.428 11.135 11.134 6.428-2.143 3.712-11.134-6.429-6.429 11.135-3.711-2.143 6.428-11.134-11.134-6.429 2.143-3.712 11.134 6.429 6.429-11.135 3.711 2.143zM-104.154 157.457l-6.428 11.135 11.134 6.429-2.143 3.711-11.134-6.429-6.429 11.135-3.711-2.143 6.428-11.134-11.134-6.429 2.143-3.711 11.134 6.428 6.429-11.135 3.711 2.143zM-112.192 291.38l-6.428 11.135 11.134 6.428-2.143 3.712-11.134-6.429-6.429 11.135-3.711-2.143 6.428-11.135-11.134-6.428 2.142-3.712 11.135 6.429 6.429-11.135 3.711 2.143zM-82.192 239.419l-6.428 11.135 11.134 6.428-2.143 3.712-11.134-6.429-6.429 11.135-3.711-2.143 6.428-11.134-11.134-6.429 2.142-3.712 11.135 6.429 6.429-11.135 3.711 2.143zM-52.192 187.457l-6.428 11.135 11.134 6.429-2.143 3.711-11.134-6.429-6.429 11.135-3.711-2.143 6.428-11.134-11.134-6.429 2.142-3.711 11.135 6.428 6.429-11.134 3.711 2.142zM-60.23 321.38l-6.43 11.135 11.135 6.428-2.143 3.712-11.134-6.429-6.429 11.135-3.711-2.143 6.428-11.135-11.134-6.428 2.142-3.712 11.135 6.429 6.429-11.135 3.711 2.143zM-30.23 269.419l-6.43 11.135 11.135 6.428-2.143 3.712-11.134-6.429-6.429 11.135-3.711-2.143 6.428-11.134-11.134-6.429 2.142-3.712 11.135 6.429 6.429-11.135 3.711 2.143zM-.23 217.457l-6.43 11.135 11.135 6.429-2.143 3.711-11.134-6.429-6.429 11.135-3.711-2.143 6.428-11.134-11.134-6.429 2.142-3.711 11.135 6.428 6.429-11.135 3.711 2.143zM111.731 143.534l-6.429 11.135 11.135 6.429-2.143 3.711-11.134-6.428-6.429 11.134-3.712-2.143 6.43-11.134-11.135-6.429 2.142-3.711 11.135 6.428 6.429-11.134 3.711 2.142zM141.731 91.573l-6.429 11.134 11.135 6.429-2.143 3.711-11.134-6.428-6.429 11.134-3.711-2.143 6.428-11.134-11.135-6.429 2.143-3.711 11.135 6.428 6.429-11.134 3.711 2.143zM163.692 173.534l-6.429 11.135 11.135 6.429-2.143 3.711-11.134-6.428-6.429 11.134-3.712-2.143 6.429-11.134-11.135-6.429 2.143-3.711 11.135 6.428 6.428-11.134 3.712 2.142zM193.693 121.573l-6.429 11.134 11.134 6.429-2.142 3.711-11.135-6.428-6.428 11.134-3.712-2.143 6.429-11.134-11.135-6.429 2.143-3.711 11.134 6.428 6.429-11.134 3.712 2.143zM245.654 151.573l-6.429 11.134 11.135 6.429-2.143 3.711-11.135-6.428-6.428 11.134-3.712-2.143 6.429-11.134-11.135-6.429 2.143-3.711 11.135 6.428 6.428-11.134 3.712 2.143zM-8.269 351.38l-6.428 11.135 11.134 6.428-2.143 3.712-11.134-6.429-6.429 11.135-3.712-2.143 6.43-11.135-11.136-6.428 2.143-3.712 11.135 6.429 6.428-11.135 3.712 2.143zM21.731 299.419l-6.429 11.135 11.135 6.428-2.143 3.712-11.134-6.429L6.73 325.4l-3.711-2.143 6.428-11.134-11.135-6.429 2.143-3.712 11.135 6.429 6.429-11.135 3.711 2.143zM43.692 381.38l-6.429 11.135 11.135 6.428-2.143 3.712-11.134-6.429-6.429 11.135-3.712-2.143 6.429-11.135-11.135-6.428 2.143-3.712 11.135 6.429 6.428-11.135 3.712 2.143zM73.692 329.419l-6.429 11.135 11.135 6.428-2.143 3.712-11.134-6.429-6.429 11.135-3.712-2.143 6.429-11.134-11.135-6.429 2.143-3.712 11.135 6.429 6.428-11.135 3.712 2.143zM103.692 277.457l-6.429 11.135 11.135 6.429-2.143 3.711-11.134-6.429-6.429 11.135-3.712-2.143 6.429-11.134-11.135-6.429 2.143-3.711 11.135 6.428 6.428-11.135 3.712 2.143zM95.654 411.38l-6.429 11.135 11.135 6.428-2.143 3.712-11.135-6.429-6.428 11.135-3.712-2.143 6.429-11.135-11.135-6.428 2.143-3.712 11.135 6.429 6.428-11.135 3.712 2.143zM125.654 359.419l-6.429 11.135 11.135 6.428-2.143 3.712-11.135-6.429-6.428 11.135-3.712-2.143 6.429-11.134-11.135-6.429 2.143-3.712 11.135 6.429 6.428-11.135 3.712 2.143zM155.654 307.457l-6.429 11.135 11.135 6.429-2.143 3.711-11.135-6.429-6.428 11.135-3.712-2.143 6.429-11.134-11.135-6.429 2.143-3.711 11.135 6.428 6.428-11.135 3.712 2.143z" fill="#333"/></svg><svg viewBox="0 0 24 24" id="email_black_24dp" xmlns="http://www.w3.org/2000/svg"><path d="M0 0h24v24H0V0z" fill="none"/><path d="M22 6c0-1.1-.9-2-2-2H4c-1.1 0-2 .9-2 2v12c0 1.1.9 2 2 2h16c1.1 0 2-.9 2-2V6zm-2 0l-8 5-8-5h16zm0 12H4V8l8 5 8-5v10z"/></svg><svg viewBox="0 0 24 24" id="home" xmlns="http://www.w3.org/2000/svg"><path d="M0 0h24v24H0V0z" fill="none"/><path d="M12 5.69l5 4.5V18h-2v-6H9v6H7v-7.81l5-4.5M12 3L2 12h3v8h6v-6h2v6h6v-8h3L12 3z"/></svg><svg fill="none" viewBox="0 0 20 14" id="nextt" xmlns="http://www.w3.org/2000/svg"><path d="M13 0l-1.41 1.41L16.17 6H0v2h16.17l-4.59 4.59L13 14l7-7-7-7z" fill="#333"/></svg><svg viewBox="0 0 24 24" id="no-view" xmlns="http://www.w3.org/2000/svg"><path d="M0 0h24v24H0zm0 0h24v24H0zm0 0h24v24H0zm0 0h24v24H0z" fill="none"/><path d="M12 7c2.76 0 5 2.24 5 5 0 .65-.13 1.26-.36 1.83l2.92 2.92c1.51-1.26 2.7-2.89 3.43-4.75-1.73-4.39-6-7.5-11-7.5-1.4 0-2.74.25-3.98.7l2.16 2.16C10.74 7.13 11.35 7 12 7zM2 4.27l2.28 2.28.46.46A11.804 11.804 0 001 12c1.73 4.39 6 7.5 11 7.5 1.55 0 3.03-.3 4.38-.84l.42.42L19.73 22 21 20.73 3.27 3 2 4.27zM7.53 9.8l1.55 1.55c-.05.21-.08.43-.08.65 0 1.66 1.34 3 3 3 .22 0 .44-.03.65-.08l1.55 1.55c-.67.33-1.41.53-2.2.53-2.76 0-5-2.24-5-5 0-.79.2-1.53.53-2.2zm4.31-.78l3.15 3.15.02-.16c0-1.66-1.34-3-3-3l-.17.01z"/></svg><svg viewBox="0 0 24 24" id="remove_black_24dp" xmlns="http://www.w3.org/2000/svg"><path d="M0 0h24v24H0V0z" fill="none"/><path d="M19 13H5v-2h14v2z"/></svg><svg viewBox="0 0 24 24" id="view" xmlns="http://www.w3.org/2000/svg"><path d="M0 0h24v24H0z" fill="none"/><path d="M12 4.5C7 4.5 2.73 7.61 1 12c1.73 4.39 6 7.5 11 7.5s9.27-3.11 11-7.5c-1.73-4.39-6-7.5-11-7.5zM12 17c-2.76 0-5-2.24-5-5s2.24-5 5-5 5 2.24 5 5-2.24 5-5 5zm0-8c-1.66 0-3 1.34-3 3s1.34 3 3 3 3-1.34 3-3-1.34-3-3-3z"/></svg></svg>